<?xml version='1.0' encoding='utf-8'?>
<svg xmlns="http://www.w3.org/2000/svg" version="1.1" id="Layer_1" x="0px" y="0px" viewBox="0 0 1748.791 1686.699" enable-background="new 0 0 1748.791 1686.699"> <g> <path fill="#068421" d="M707.169,43.365c3.964,3.919,8.507,7.46,11.424,12.271c3.051,8.173-6.547,12.404-7.995,19.508 c4.098,3.095,7.438,6.792,8.596,11.959c4.944-6.414-2.271-15.166,3.296-21.446c1.737-1.982,3.919-6.837,7.193-4.677 c14.373,15.886,6.619,21.921,1.18,27.503c1.782-0.022,5.389-0.045,7.171-0.045c-1.826,10.556-11.046,18.729-20.956,21.713 c-7.371,0.356-14.319-2.873-21.468-4.12c1.024-1.18,3.118-3.541,4.142-4.743c-24.635-2.394-19.061-11.934-19.597-32.447 c10.489,1.626,16.903,10.155,22.715,18.172c0.69-4.498,1.693-8.975,1.759-13.54c-3.519-5.278-11.892-8.351-10.756-15.7 C698.016,52.718,703.049,48.465,707.169,43.365z"/> <path fill="#068421" d="M1061.945,45.236c5.746,6.881,12.426,12.894,18.573,19.397c5.456,13.896-21.913,17.526-12.427,31.511 c-0.356,2.873-0.69,5.768-1.002,8.641c6.347-0.223,7.683-7.015,11.046-11.09c5.456-7.193,14.119-11.424,22.849-13.072 c-1.581,12.382,3.697,26.946-5.1,37.48c-5.434,7.46-15.366,5.122-23.094,7.683c1.715,2.227,3.474,4.432,5.233,6.614 c-11.602,2.227-24.006,10.133-35.52,3.585c-9.42-5.389-19.063-13.473-21.891-24.341c-0.111-6.213,6.904-2.294,10.333-1.559 c-3.942-5.033-10.289-9.309-10.378-16.279c-1.403-10.778,7.393-18.439,12.76-26.612c4.877,5.857,11.87,11.513,11.959,19.775 c-1.381,6.725-5.167,14.809,1.96,19.642c-0.891-8.552,5.745-13.184,12.115-17.237c-4.365-8.329-14.542-14.609-13.362-24.986 C1049.519,56.727,1056.556,51.516,1061.945,45.236z"/> <path fill="#272223" d="M933.094,108.481c16.88,7.794,26.078,27.124,25.766,45.163c0.379,9.754-3.095,18.996-4.988,28.416 c-1.113,0.312-3.318,0.935-4.432,1.247c3.652-14.074,7.037-29.173,2.138-43.403c-14.45-46.016-54.24-24.032-57.522,2.761 c-0.935,6.547,4.365,11.246,8.084,15.834C872.939,154.272,899.426,97.843,933.094,108.481z"/> <path fill="#272224" d="M715.988,162.73c19.558-47.073,72.305-57.498,89.145-39.217c17.954,19.369,11.819,73.552-30.776,57.834 c-0.468-1.024-1.403-3.118-1.848-4.142c25.749,11.207,36.615-6.959,36.544-23.45c-0.131-29.57-15.538-36.26-40.731-31.289 c-22.381,5.167-39.662,22.448-50.44,42.045c59.078,43.202,28.732,64.988,2.583,101.171c22.759-3.34,47.211-3.63,67.9,7.883 c11.878-25.149,8.657-47.163,3.229-55.852c2.806,2.093,7.126,3.118,8.329,6.859c3.764,17.326,2.761,36.856-8.73,51.242 c5.233,5.189,10.355,10.845,12.85,17.927c-0.289,4.832-1.069,9.598-1.804,14.364c-5.382-38.049-40.22-40.191-78.545-39.039 c-7.126-0.935-10.244,6.213-13.829,10.89c-20.844,29.685-37.68,62.934-43.871,98.944c7.327-6.948,14.431-14.475,23.561-19.107 c19.33-10.6,45.252-4.832,59.616,11.447c17.405,20.023,14.375,64.664-27.971,75.316c-7.483-2.739-15.255-8.017-16.212-16.591 c-0.913-4.588,2.294-8.307,4.276-12.092c-0.089,4.788-0.557,9.576,0.045,14.342c14.271,27.01,59.541-16.586,39.35-51.509 c-12.159-21.045-43.047-27.525-62.845-13.429c-9.799,7.416-23.004,15.344-22.759,29.307 c-5.985,76.812,19.546,145.047,88.499,201.718c3.897,2.472,6.97,8.24,12.092,7.349c7.491-5.331,4.454-19.425,23.316-85.671 c-0.583,16.294-15.772,64.089-18.907,88.544c-1.581-0.134-4.766-0.401-6.347-0.534c-12.958-5.312-67.125-48.308-91.127-111.192 c-33.514-86.662,1.872-154.333,1.269-162.657c-16.279-32.914-43.448-64.916-81.618-71.018c0.958-1.559,1.871-3.14,2.761-4.721 c38.259,6.525,65.673,39.306,80.482,73.222c6.146-11.357,11.202-23.249,18.083-34.184c50.458-85.384,107.422-84.367-36.522-163.08 c-56.045,32.811-56.896,85.672-24.541,86.896c4.743-1.559,8.975-4.276,13.406-6.503c-3.652,3.986-7.705,8.574-13.473,8.997 c-11.095,0.802-31.7-10.311-23.361-39.796c10.203-34.824,45.638-56.828,51.175-53.514 C677.818,140.594,697.103,151.35,715.988,162.73z"/> <path fill="#068421" d="M828.315,136.251c6.391,1.514,15.611,0.156,18.818,7.26c0.779,5.167,0.401,10.422,0.601,15.611 c2.784,0.022,5.567,0.022,8.351,0.022c2.049,1.314,4.142,2.561,6.235,3.808c-0.2-5.634-5.456-8.262-8.529-12.226 c-2.294-4.343-1.047-9.509-1.314-14.186c6.347,1.826,14.119,2.784,18.083,8.752c2.962,3.674,1.247,8.551,1.113,12.76 c1.091-1.069,3.251-3.251,4.32-4.32c5.434,5.946,3.095,15.076,0.757,21.936c-3.118,9.888-14.52,11.113-22.559,15.099 c0.334-1.514,1.002-4.565,1.336-6.08c-5.211,1.804-10.088,6.302-15.945,5.256c-9.13-2.739-12.738-12.515-17.994-19.508 c9.286-3.674,18.84-1.514,27.815,1.804c-1.737-3.474-3.474-6.97-5.033-10.534c-5.322-2.806-12.115-1.136-16.925-4.788 C825.331,150.281,828.093,143.088,828.315,136.251z"/> <path fill="#262223" d="M532.398,181.392c-8.552,5.144-18.617,8.262-25.432,15.878c-15.099,16.435-17.281,42.713-6.681,62.087 c4.588,8.574,12.939,14.008,20.733,19.375c9.064-8.039,18.996-15.7,31.022-18.573c-1.203,2.227-2.316,4.521-3.296,6.881 c-30.81,13.164-41.593,41.618-35.72,55.629c5.656,14.342,17.838,26.211,32.269,31.623c33.472,8.992,46.144-18.215,35.075-26.011 c-6.97-4.365-14.987-6.814-21.802-11.513c16.688,3.477,35.4,9.728,28.839,25.565c-10.65,31.7-66.086,22.513-80.282-19.597 c-4.476-15.099,3.34-29.752,11.914-41.666c-8.552-4.543-17.259-9.71-22.581-18.083C476.258,233.96,493.355,181.232,532.398,181.392 z"/> <path fill="#231F20" d="M1162.448,162.752c7.393,0.98,13.829,6.725,21.468,5.59c5.924-7.75,8.908-18.528,5.568-27.926 c-1.915-5.367-8.596-4.387-13.095-5.256c2.005-19.774-10.704-22.774-19.486-36.678c-3.63,9.353-5.656,19.241-8.997,28.705 c-3.006,8.774-0.245,17.905,0.846,26.746c-7.95-7.928-13.918-19.085-11.803-30.598c-0.757-0.089-2.294-0.267-3.051-0.356 c-0.757,9.977,3.029,19.218,8.284,27.458c-1.136-0.022-3.43-0.089-4.565-0.111c-3.741-8.373-15.856-6.169-23.606-6.748 c-0.045,1.247-0.156,3.719-0.223,4.966c7.349-1.603,14.52,0.468,21.713,1.693c3.764,1.871,7.661,3.541,10.6,6.703 c-7.995,0.044-16.168-1.336-24.006,0.557c-10.155,3.296-19.285,9.331-29.908,11.268c0.267,0.668,0.824,1.982,1.113,2.628 c8.218,3.719,13.674,11.87,22.515,14.453c4.788,1.225,9.776,0.445,14.653,0.089c0.579,4.343,0.089,10.467,4.988,12.471 c13.146,4.305,31.788-5.972,28.015-12.449c-2.561-5.812-6.28-11.157-7.527-17.482c5.233,3.541,9.331,9.353,15.7,10.979 c4.009,4.387,7.215,9.398,9.91,14.698c0.468-4.031,2.205-6.97,6.703-6.614c0.022-0.802,0.089-2.427,0.111-3.229 c-3.741-1.158-7.438-2.383-11.179-3.407C1173.471,173.954,1167.703,168.498,1162.448,162.752z M1115.726,180.59 c-5.456-3.34-4.766-12.048,0.958-14.742c4.699-1.359,11.224-0.067,11.87,5.679C1130.714,178.675,1121.628,185.066,1115.726,180.59z M1185.987,153.51c-1.114,9.709-15.589,11.847-20.265,3.83c-4.209-5.144-1.069-13.095,4.365-15.856 C1178.081,137.899,1188.035,144.424,1185.987,153.51z M1157.593,182.594c0.846,9.197-11.313,16.324-18.439,9.821 c-7.037-4.922-5.5-16.101,2.138-19.553C1148.463,169.678,1157.014,174.867,1157.593,182.594z M1159.063,119.438 c9.242-4.766,16.836,9.598,7.861,14.52C1157.571,139.904,1149.487,124.137,1159.063,119.438z"/> <path fill="#231F20" d="M379.94,193.083c6.013-3.786,12.426-6.948,18.328-10.934c-0.98,10.534-0.111,21.089-0.267,31.623 c0.067,8.44-4.81,15.655-8.173,23.071c17.653-7.642,17.706-22.421,22.025-26.657c0.69,10.533-7.26,18.239-13.985,25.142 c8.952,0.646,22.515-3.875,28.126,5.456c-3.118-1.024-6.169-2.16-9.175-3.407c-8.396,0.022-17.727-1.96-24.964,3.43 c10.066,2.093,20.777,4.187,28.394,11.714c5.968,6.102,14.208,9.732,19.33,16.591c-9.732,0.891-17.682,8.262-27.592,7.972 c-5.055,0.401-9.442-2.361-13.785-4.476c-1.871,4.031-2.94,10.734-8.44,11.113c-11.001,0.022-19.864-8.24-25.699-16.836 c4.677-5.567,10.044-10.556,14.23-16.546c-7.794,3.185-15.856,5.545-23.873,7.995c-3.118,2.561-5.679,5.679-8.462,8.596 c0.958-2.361,1.915-4.699,2.917-7.037c-1.626-0.935-4.922-2.784-6.547-3.697c3.942-0.312,7.906-0.423,11.825-1.024 c6.904-4.521,13.785-9.041,20.8-13.362c-2.027-0.156-6.08-0.445-8.106-0.579c4.572-4.717,7.601-6.553,11.224-14.074 c-2.806-4.855-5.768-11.736-12.671-10.868c-6.881-0.891-10.155,5.768-12.76,10.845c2.071,4.565,4.543,9.22,9.509,11.179 l3.964,3.674c-4.81,0.134-9.62,0.111-14.408-0.089c-2.182-9.732-3.719-21.267,3.296-29.485c3.118-4.387,9.108-1.047,13.429-1.18 C370.32,204.218,373.571,197.114,379.94,193.083 M375.442,207.113c-0.579,6.993,7.015,9.153,12.582,8.44 C402.98,197.931,373.898,193.034,375.442,207.113 M374.351,271.45c7.951,15.763,33.336-3.116,13.896-16.413 c-1.982,0-5.968-0.022-7.95-0.022C374.907,258.422,370.342,265.237,374.351,271.45 M404.815,258.088 c-6.683,18.266,16.639,17.337,14.987,4.476c-1.047-3.697-4.565-5.612-7.371-7.794C409.893,255.906,407.354,256.997,404.815,258.088 z"/> <path fill="#333438" d="M947.858,185.155c8.44,0.995,23.1-1.105,32.447,19.33c17.378,37.614-39.962,76.141-41.911,42.223 c2.116,3.051,4.053,6.191,6.057,9.331c16.368,0.49,29.663-13.495,32.937-28.705c5.323-19.207-12.523-49.01-40.486-29.685 c-46.469,33.825-91.241,168.05-107.629,199.646c1.96-9.576,1.269-19.998,6.57-28.616c-0.045,1.403-0.156,4.231-0.2,5.634 C860.844,303.957,900.668,203.797,947.858,185.155z"/> <path fill="#068421" d="M539.034,204.307c6.703-8.552,18.996-14.52,29.997-11.38c4.432,2.227,7.483,6.325,10.89,9.821 c0.022-3.63,0.111-7.238,0.245-10.845c14.587,4.387,25.855,18.216,28.238,33.093c-1.047,9.843-5.656,18.84-8.752,28.149 c-1.492-2.851-3.496-5.278-5.991-7.282c-0.423,4.164-0.668,8.351-0.668,12.538c-11.706,20.777-23.391,13.449-45.296,12.449 c5.26-20.563,18.378-20.824,26.991-30.843c-6.08-0.557-12.026-1.759-18.038-2.628c-8.039,3.964-12.872,16.814-23.472,13.05 c-6.748-5.946-12.003-13.384-18.573-19.553c7.794-5.256,14.008-16.034,24.697-14.297c7.906,1.759,11.803,10.957,19.753,12.627 c4.988-4.476,8.997-10.534,16.569-10.534C568.195,206.835,557.089,227.521,539.034,204.307z"/> <path fill="#068421" d="M691.514,200.499c5.857-3.34,11.692-8.908,18.974-7.572c3.964,1.336,6.703,4.677,9.821,7.304 c-0.2-2.271-0.379-4.543-0.534-6.814c8.284,1.492,14.008,8.618,17.704,15.7c4.053,8.062-1.292,16.479-3.719,24.162 c-1.581-0.846-3.162-1.692-4.743-2.561c-0.98,5.345-0.846,12.07-6.236,15.143c-7.772,4.632-17.17,1.425-25.499,0.401 c3.429-9.353,11.647-14.431,18.929-20.399c-4.164-0.713-8.284-1.603-12.493-1.871c-5.322,3.006-9.242,11.781-16.435,8.462 c-4.053-4.142-7.572-8.774-11.847-12.716c5.077-3.986,9.598-11.38,17.059-9.888c5.144,1.381,7.883,7.371,13.228,8.262 c3.274-3.118,6.414-6.636,11.357-6.837c-3.029-4.988-8.93-1.759-13.384-1.759C698.306,208.828,694.698,204.441,691.514,200.499z"/> <path d="M876.974,205.064c-14.809,54.226-27.57,109.054-41.132,163.614c-0.617,1.003-64.754,269.627-65.628,293.312 c-1.786,13.493-25.234,105.306,13.518,242.783c18.67,68.769,47.261,119.078,70.572,168.313 c13.74-5.389,125.537-151.893,98.832-229.844c-3.079-24.204-7.858-28.359-19.887-52.311c7.683,7.973,14.008,17.103,20.466,26.078 c-0.022-1.692-0.045-5.1-0.067-6.792l1.915,1.537c-0.445,3.274-1.381,6.77,0.312,9.932c25.188,62.415,18.282,72.45-40.486,200.782 c-10.311,22.492-21.891,44.472-30.776,67.566c185.922-41.204,324.807-314.285,505.986-405.462 c5.411-3.83,11.736-0.757,17.326,0.802c-4.618,3.285-81.258,45.052-168.647,153.549c-74.336,90.043-117.71,140.953-171.431,184.481 c-27.829,22.274-108.926,74.817-169.204,181.475c0,0,7.763-2.355,8.151-2.472c-30.978,23.235-117.317,206.137-61.553,420.627 c-79.302-0.312-158.648,6.102-236.681,20.332c-9.202-201.405,169.742-399.016,168.001-525.405 c2.253-79.404-47.051-106.76-66.965-121.814C556.978,883.505,423.327,785.04,260.754,706.931 c263.811,73.996,548.324,352.292,549.367,353.128c-108.626-224.135-60.418-372.607-44.539-450.357 c-0.958-0.423-2.895-1.292-3.875-1.715c1.581,0.134,4.766,0.401,6.347,0.534C775.763,548.389,857.665,244.441,876.974,205.064z"/> <path fill="#068421" d="M1165.655,222.835c17.585-21.157,29.813-5.773,41.221-0.134c-15.817,26.287-28.791,4.38-37.858,15.811 c6.993,0.713,12.582,4.098,15.856,10.355c9.531,1.358,12.849-12.159,22.247-12.271c10.444-1.269,16.413,9.375,24.118,14.653 c-7.483,5.167-12.026,13.184-18.551,19.285c-8.507,3.363-13.629-5.033-19.04-9.799c-5.701-7.483-14.431,1.603-21.936-1.336 c0.802,5.812,6.859,7.126,11.001,9.821c8.195,4.498,11.847,13.607,15.522,21.668c-12.36,0.356-26.412,5.968-37.613-1.581 c-7.349-4.632-7.416-14.008-8.351-21.668c-3.073-0.045-5.367,1.559-6.859,4.209c-3.63-10.957-11.447-22.782-6.347-34.451 c4.588-10.645,13.028-20.02,23.717-24.741C1167.525,213.727,1164.986,219.517,1165.655,222.835z"/> <path fill="#068421" d="M1025.401,222.1c2.917-2.94,5.278-7.527,9.977-7.594c7.015-1.269,12.716,3.652,18.395,6.814 c-11.737,17.014-17.625,4.14-25.454,10.645c4.855,1.358,8.885,4.187,11.736,8.351c4.32-3.318,8.418-6.993,13.117-9.776 c7.282-0.958,11.58,6.391,16.992,10.021c-4.81,5.033-9.42,10.289-14.342,15.21c-5.122-2.539-9.042-6.703-13.54-10.066 c-4.432-0.045-8.841,0.579-13.228,1.047c3.274,3.63,7.661,5.924,11.447,8.952c3.674,3.34,5.434,8.173,7.772,12.449 c-22.745,0.705-29.167,4.938-31.801-16.056c-1.848,0.468-3.674,0.958-5.478,1.448c-1.804-5.768-4.12-11.424-4.899-17.459 c2.338-9.71,9.576-19.063,19.575-21.601C1025.601,216.399,1025.468,220.185,1025.401,222.1z"/> <path fill="#231F20" d="M1537.845,260.627c6.659-5.523,9.865-13.941,15.722-20.221c-0.802,7.037-3.185,13.696-5.122,20.443 c5.567-3.897,10.088-8.997,15.01-13.651c-1.314,6.146-3.964,11.87-6.28,17.682c4.81-3.764,9.487-7.772,14.809-10.823 c-2.828,4.521-5.968,8.819-9.108,13.117c2.272-0.423,6.792-1.314,9.064-1.759c-20.167,32.111-32.897,81.211-72.777,88.299 c16.137,26.546,51.982,38.185,52.356,48.347c-11.05,9.405-19.633-19.06-34.696-21.713c-9.754-0.824-19.931,2.16-29.307-1.67 c-19.33-7.928-30.331-27.592-48.77-36.856c-5.99-3.118-12.916-2.249-19.352-2.049c-1.091-10.333,8.752-21.223,19.196-20.688 c-4.677-11.602-11.202-22.381-15.589-34.05c3.185,1.804,6.28,3.764,9.398,5.746c-0.757-8.796-0.935-17.749,1.314-26.367 c2.16,5.189,1.982,10.912,2.628,16.413c3.853-6.124,6.547-13.117,11.914-18.15c-0.022,2.539-0.022,7.594-0.022,10.133 c3.541-4.164,7.215-8.24,11.313-11.914c0.49,6.28,0.022,12.605-1.848,18.64c3.608-2.628,7.327-5.1,11.224-7.304 c0.156,4.944-0.445,9.888-2.383,14.475c1.915-0.401,5.768-1.203,7.683-1.603c-0.356,4.098-0.713,8.195-1.136,12.293 c1.158-0.134,3.496-0.356,4.677-0.49c-0.134,1.314-0.379,3.919-0.49,5.211c1.18-0.156,3.563-0.445,4.766-0.601 c-0.178,4.098-0.356,8.195-0.512,12.293c14.186-12.048,27.547-25.365,37.702-41.065c1.091-0.022,3.296-0.089,4.387-0.134 c6.903-9.286,11.402-19.976,16.747-30.153C1540.585,248.623,1539.404,254.681,1537.845,260.627z"/> <path fill="#068421" d="M940.754,275.57c2.851-2.984,5.322-7.616,10.088-7.416c6.904-1.113,12.404,3.986,18.016,7.104 c-3.363,4.231-7.416,9.776-13.584,8.908c-3.964,0.223-9.242-2.405-11.647,2.116c1.67,0.49,5.011,1.425,6.681,1.893 c1.292,1.96,2.606,3.897,3.942,5.835c5.1-2.895,9.309-7.104,14.453-9.932c6.97,0.111,11.625,6.213,16.056,10.845 c-4.12,3.942-7.638,8.462-11.714,12.426c-4.832,3.897-8.707-2.717-12.27-5.189c-3.964-5.3-11.023-1.559-16.368-1.804 c5.708,8.794,11.316,2.974,18.038,21.49c-8.173,0.045-17.281,3.919-24.742-1.024c-5.345-3.251-5.367-9.999-6.57-15.433 c-1.247,0.49-3.763,1.448-5.011,1.937c-1.804-5.879-4.654-11.602-4.966-17.793c2.294-9.665,9.665-18.461,19.308-21.446 C940.554,270.559,940.643,273.075,940.754,275.57z"/> <path fill="#068421" d="M1319.738,283.876c6.258-8.217,17.415-8.685,26.545-11.424c0.022,5.835,0.735,11.803-0.579,17.548 c-2.338,9.22-17.37,9.954-14.765,21.134c2.561-1.759,5.055-3.764,7.817-5.256c3.942-0.245,7.883,0.735,11.847,0.245 c5.055-7.995-1.358-19.931,6.815-26.568c7.416-4.721,16.858-3.118,25.165-4.832c-1.292,9.42,2.316,18.907,0.824,28.126 c-5.812,11.625-23.383-0.512-28.527,11.224c-1.715,3.853-4.877,6.681-7.861,9.509c6.859,3.006,13.384-2.004,20.265-2.049 c7.683-0.534,14.921,2.494,21.958,5.122c-9.732,8.262-14.854,22.693-28.416,25.565c-9.375,2.472-15.477-7.149-23.851-9.064 c0.223,2.138,0.668,6.391,0.891,8.529c-10.043-6.547-24.675-8.485-29.552-20.867c-3.964-10.689-6.102-23.606-0.067-33.939 c3.764-1.024,5.946,2.583,8.552,4.565C1317.043,295.59,1315.328,288.642,1319.738,283.876z"/> <path fill="#262223" d="M1028.675,332.335c26.729-52.804,89.693-64.385,121.48-38.838c-14.342-2.828-28.349-8.551-43.27-7.304 c-32.447,0.869-60.462,22.759-76.808,49.639c26.89,51.529,6.497,109.466,6.703,120.1c-11.404,16.697-12.457,46.729-73.089,108.586 c23.517-0.735,49.127-1.292,69.347,12.649c13.269,7.376,3.036,53.619-28.683,55.986c-47.483-1.506-30.802-58.232-5.478-37.101 c-5.033-0.512-11.268-4.632-15.433-0.045c-5.768,5.055-6.659,14.252-3.452,20.889c12.75,19.172,55.728,16.721,52.534-33.672 C990.589,555,847.818,571.283,779.055,652.749c-2.383,0.624-4.699,1.314-7.037,2.004l2.516,3.585 c-1.069,0.913-3.251,2.739-4.32,3.652c0.615-16.672,15.713-88.317,21.624-103.954c-5.434,31.4-13.718,62.266-18.706,93.777 c1.336-0.624,4.053-1.871,5.411-2.494c19.654-29.17,75.712-70.343,161.187-82.308c7.928-1.737,18.35,0.646,23.762-6.815 c13.295-15.633,27.169-31.066,37.725-48.703c2.991-25.986-15.459-66.334-48.035-66.942c-29.312,0.722-65.073,33.171-58.19,61.397 c3.229,12.449,13.05,25.877,27.147,25.632c20.176-1.336,31.289-29.44,18.617-44.673c-4.031-5.411-11.268-4.766-17.17-5.812 c36.707-12.016,34.864,54.77-1.425,55.362c-21.942,1.523-47.172-31.193-24.897-64.537c37.617-54.438,104.782-38.232,107.228,32.714 c10.601-11.207,35.049-58.318,34.184-114.799c-43.061-48.06-87.978-27.852-104.4-5.59c-5.567,7.394-7.015,16.791-10.155,25.276 c-6.854-44.996,68.005-82.996,113.218-26.189c-0.558-41.541-28.851-73.48-35.23-83.555 C1014.155,307.549,1021.214,320.51,1028.675,332.335z"/> <path fill="#3E4346" d="M804.042,293.742c3.697,10.266,4.254,22.047-1.336,31.756C800.877,307.889,803.359,305.128,804.042,293.742 z"/> <path fill="#068421" d="M386.287,307.883c8.975,1.47,19.597-1.158,26.946,5.345c5.055,6.592,2.962,15.7,4.343,23.383 c2.784,4.922,8.084,0.713,12.293,0.958c3.006,1.603,5.679,3.764,8.529,5.656c1.158-6.725-3.652-10.355-8.752-13.406 c-8.24-5.122-7.371-15.878-7.215-24.274c9.531,1.737,21.201,2.205,27.347,10.89c4.164,5.055,3.14,11.781,2.895,17.816 c2.116-2.316,4.231-4.61,6.391-6.881c8.596,9.197,5.812,23.517,2.494,34.451c-4.365,13.674-20.109,15.745-30.732,22.626 c0.735-3.118,1.448-6.28,2.138-9.398c-7.728,1.737-12.382,10.444-20.844,9.62c-15.232,0.29-21.579-16.39-31.311-25.32 c24.175-10.445,29.623-0.847,41.087-2.093c-1.136-3.118-3.407-5.389-5.968-7.327c-1.158-2.583-2.049-5.278-3.608-7.616 c-8.44-2.516-20.688,2.227-26.122-6.703C385.107,326.456,387.356,317.125,386.287,307.883z"/> <path fill="#068421" d="M1092.722,338.102c3.073-2.583,5.857-5.746,9.709-7.215c7.527-1.425,13.495,4.231,19.553,7.705 c-2.962,2.717-5.545,6.057-9.197,7.839c-4.899,0.98-9.954-0.512-14.854,0.445c0.156,2.606,1.715,4.187,4.632,4.699 c1.915,1.581,3.34,5.122,6.436,4.231c4.632-3.095,8.841-6.77,13.517-9.821c4.721,3.519,12.85,6.235,14.319,12.159 c-5.323,4.231-8.418,14.23-16.479,12.783c-4.098-2.427-7.015-6.391-10.934-9.041c-4.12,0.289-8.151,1.269-12.159,2.138 c7.126,5.857,15.255,10.778,18.595,20.02c-8.685,1.158-18.929,5.011-26.612-1.091c-6.325-3.474-1.047-16.346-10.957-14.052 c-2.227-6.859-6.347-14.52-2.806-21.668c3.674-7.037,9.375-13.941,17.526-15.633 C1092.944,333.225,1092.789,336.477,1092.722,338.102z"/> <path fill="#272426" d="M1161.757,339.995c4.294,5.747,5.962,38.038-19.441,60.974c-8.44,7.817-18.35,13.807-28.26,19.53 c9.375,17.615,9.509,39.128,4.61,58.079c-7.104,23.071-32.358,30.376-49.282,44.45c6.699-23.866,65.369-19.863,42.379-101.349 c-24.63,11.87-49.772,22.626-74.202,34.896c0.076-15.873,100.705-37.139,118.496-84.602 C1160.31,361.864,1160.31,350.707,1161.757,339.995z"/> <path fill="#068421" d="M862.098,389.901c3.608-7.171,9.353-14.097,17.482-16.079c0.245,1.603,0.735,4.788,1.002,6.391 c2.873-2.94,5.723-6.904,10.289-6.97c6.77-0.334,12.07,4.743,17.682,7.75c-3.385,3.229-6.414,7.304-11.046,8.752 c-4.899,1.113-11.424-3.741-14.253,2.361c1.448,0.312,4.32,0.958,5.746,1.269c2.004,1.603,2.94,5.812,6.191,4.988 c6.035-2.16,9.91-10.623,17.326-7.906c3.674,2.249,9.064,5.1,9.242,9.932c-2.605,4.61-5.389,9.331-9.62,12.649 c-7.304,2.828-10.89-5.946-16.457-8.73c-4.142,0.468-8.173,1.47-12.204,2.361c7.794,5.345,15.901,10.845,18.885,20.377 c-8.774,0.557-19.107,4.343-26.723-1.804c-4.409-3.296-3.808-9.197-4.588-13.985c-1.826,0.757-3.63,1.537-5.434,2.294 C863.724,405.913,858.09,397.763,862.098,389.901z"/> <path fill="#068421" d="M200.559,409.989c5.011-5.701,12.538-9.509,19.842-11.602c8.93-2.071,16.168,4.565,20.911,11.246 c-0.089-3.496-0.134-6.993-0.156-10.489c12.137,1.537,20.109,12.582,25.81,22.403c5.768,11.736-1.893,23.695-4.142,35.23 c-0.601,0.289-1.782,0.868-2.383,1.18c-1.158-1.514-3.496-4.498-4.654-5.991c-2.182,4.966-2.561,10.4-3.496,15.678 c-6.702,17.455-27.713,9.838-43.025,10.155c5.162-23.516,21.231-21.861,26.701-31.511c-3.029-0.111-6.035-0.2-9.064-0.267 c-3.853-1.648-8.886-3.83-12.315-0.178c-6.213,4.432-11.714,15.344-20.666,10.801c-6.458-6.124-11.513-13.562-18.127-19.575 c7.059-4.409,11.959-12.115,20.109-14.631c9.62-1.091,14.876,8.797,22.247,13.117c5.656,1.425,6.258-7.238,11.001-8.685 c1.759-0.178,5.278-0.557,7.037-0.757c-0.713-3.229-3.407-4.743-6.191-6.013c-6.169,2.316-13.874,4.32-19.642-0.022 C206.617,417.315,202.274,414.487,200.559,409.989z"/> <path fill="#068421" d="M574.821,407.561c3.296-4.053,8.462-6.102,13.228-7.906c5.679-1.559,10.11,2.695,14.364,5.701 c0.089-1.247,0.312-3.741,0.423-4.988c10.021,1.715,16.502,11.268,19.241,20.399c-0.379,6.636-3.274,12.783-4.721,19.241 c-1.893-1.047-3.786-2.071-5.656-3.073c-0.245,3.229-0.49,6.48-0.668,9.732c-9.534,11.676-12.456,7.836-29.975,6.681 c1.982-8.774,8.551-15.277,16.724-18.573c0.067-0.824,0.178-2.45,0.245-3.251c-3.875-0.245-7.75-0.69-11.625-0.646 c-5.411,2.427-9.264,11.87-15.99,8.084c-3.942-4.098-9.286-7.928-11.09-13.406c3.741-4.365,8.663-7.416,13.25-10.756 c5.077,2.672,9.375,6.503,14.074,9.732c4.899,0.178,6.837-6.77,12.337-6.235c-0.646-5.879-7.483-1.826-11.09-2.761 C582.148,416.603,577.85,411.703,574.821,407.561z"/> <path fill="#272425" d="M1309.271,414.108c3.521-9.913,25.776-21.872,44.851,2.205c24.856,31.14-2.276,71.976-6.347,80.438 c5.634,4.743,13.139,7.059,19.686,10.511c20.208-52.212,68.672-68.424,87.742-47.122c-0.509,14.29,6.578,37.262-23.405,30.309 c5.879-2.94,15.388-0.379,18.061-7.794c2.16-7.26,0-14.921-1.002-22.203c-11.692-6.391-26.078-3.429-37.413,2.249 c-17.192,9.108-28.572,25.588-39.194,41.31c-0.913,1.893-4.142,5.256-1.247,6.948c16.925,13.54,32.291,30.086,41.065,50.129 c5.59,17.593-6.904,37.613-24.452,42.156c-28.459,8.812-51.051-20.711-34.429-38.103c-1.002,8.039-3.429,16.969,1.96,24.073 c10.422,13.874,33.627,12.872,44.561,0.089c5.211-5.144,6.926-12.426,8.574-19.263c-4.327-23.364-32.481-52.475-61.687-70.461 c-65.951,98.804-39.605,202.813-42.379,238.418c-5.1-18.395-5.768-37.702-7.661-56.609c-34.135-35.097-94.708-36.977-130.833-12.36 c-32.631,21.913-28.928,64.467-6.681,84.847c25.108,24.369,65.121,14.318,70.149-16.502c2.47-11.357-4.479-31.244-40.419-28.104 c-1.782,0.735-3.563,1.47-5.323,2.205c1.024-1.292,2.071-2.561,3.118-3.853c18.261-8.151,44.25,1.915,47.59,22.826 c1.96,24.675-23.027,45.808-47.011,42.334c-17.86-1.715-34.273-12.872-42.98-28.483c-45.024-76.952,82.749-135.151,152.569-67.388 c-0.735-17.793,0.089-35.587,0.557-53.358c-76.678-138.879-160.67-87.865-180.161-49.349 c-18.992,38.984,18.245,67.459,34.607,47.635c2.116-2.294,4.075-4.721,6.146-7.059c-1.381,12.092-15.032,19.931-26.456,16.658 c-32.485-9.338-41.8-71.146,29.173-100.614c-39.737-69.677,15.261-114.259,56.03-105.803c19.419,4.988,31.021,25.677,29.73,44.94 c3.364,31.015-33.609,31.865-46.9,12.315c-3.942-5.033-2.205-11.647-2.093-17.482c0.891-0.178,2.695-0.534,3.585-0.713 c0.045,6.48-1.848,14.542,4.031,19.174c6.659,5.656,15.856,8.418,24.541,7.327c19-4.895,13.791-43.487-5.055-55.741 c-19.312-13.461-61.005,0.585-70.773,35.03c-5.3,20.31,1.091,40.842,8.596,59.66c86.559-18.272,124.507,73.797,136.29,87.542 c7.686-97.916,65.42-129.36,60.439-175.796c-1.559-14.809-10.244-30.309-25.165-34.896 C1324.681,404.132,1316.486,409.231,1309.271,414.108z"/> <path fill="#068421" d="M1504.552,427.893c4.855-4.61,9.175-11.046,16.479-11.669c10.222-1.091,18.261,6.614,26.545,11.335 c-12.775,12.905-14.185,15.451-31.378,10.578c-2.494,1.425-4.743,3.185-6.391,5.545c7.572-0.601,12.627,4.053,15.7,10.556 c10.177-2.249,15.143-16.524,26.679-13.718c7.238,3.496,12.493,9.932,19.13,14.364c-6.97,6.102-12.226,13.829-18.996,20.087 c-14.406,4.743-15.991-20.066-31.556-10.934c-2.939-0.156-5.879-0.29-8.796-0.423c0.98,6.035,7.483,7.327,11.803,10.333 c7.661,4.944,11.268,13.74,14.921,21.691c-13.206-0.913-28.55,6.213-39.796-3.674c-7.037-5.389-3.652-15.277-8.396-21.824 c-1.893,2.093-3.608,4.276-5.411,6.414c-2.361-11.001-10.244-21.668-6.681-33.226C1486.665,422,1512.595,405.869,1504.552,427.893z "/> <path fill="#068421" d="M450.357,429.942c17.589-12.757,18.774-7.058,27.325-0.356c-0.022-1.537-0.045-4.61-0.067-6.146 c10.89,1.648,17.058,12.337,20.176,21.935c-1.938,5.478-3.674,11.068-5.144,16.702c-1.492-0.156-4.476-0.445-5.968-0.601 c1.344,20.873-18.523,16.46-31.422,15.143c3.43-9.442,11.335-15.255,19.263-20.711c-4.098-0.735-8.128-1.848-12.271-2.16 c-5.411,2.583-8.796,10.712-15.366,9.821c-4.743-4.008-8.641-8.93-12.471-13.785c14.034-18.157,19.001-8.443,28.705-0.668 c3.006-3.251,5.857-7.349,10.778-7.505c-0.267-1.024-0.757-3.029-1.002-4.031C464.832,441.077,452.873,439.451,450.357,429.942z"/> <path fill="#231F20" d="M80.727,457.668c0.624-16.635,18.105-22.114,29.663-29.953c-2.955,34.356,5.775,29.28-9.576,55.407 c10.378-4.432,19.731-14.386,20.822-25.966c0.757-0.022,2.249-0.045,2.984-0.067c-1.225,10.355-8.819,17.905-15.834,24.875 c6.681-1.069,13.673-2.739,20.377-0.846c3.496,1.024,8.017,1.715,8.997,5.924c-10.266-5.3-24.14-6.904-33.605,0.356 c5.567,1.002,11.447,1.158,16.613,3.741c8.975,3.897,15.299,11.625,23.205,17.081c2.628,1.937,5.746,3.608,6.993,6.837 c-9.309,0.802-16.925,7.572-26.367,7.594c-5.189,0.267-10.021-1.937-14.854-3.496c-1.581,3.296-2.561,7.126-5.545,9.509 c-11.87,2.472-22.893-6.458-28.349-16.324c2.271-2.784,4.521-5.59,6.748-8.373c0.445,0.579,1.336,1.782,1.804,2.383 c0.579,5.968,0.111,14.03,7.46,15.923c7.728,3.229,13.473-3.786,16.279-9.999c-2.45-7.238-8.217-13.117-16.524-11.001l-1.024-0.089 c-1.603-1.091-2.895-2.516-3.853-4.298c-5.812,2.739-11.914,4.721-18.194,6.146c-4.677,1.225-7.059,5.879-10.155,9.197 c0.267-1.826,0.802-5.478,1.069-7.304c-2.138-0.891-4.253-1.804-6.369-2.695c4.832-0.512,10.355,0.779,14.453-2.427 c5.946-4.387,12.76-7.616,17.994-12.872c-7.26,0.356-14.453,1.581-21.735,1.403c-3.34-10.066-4.588-22.759,3.519-30.91 C71.262,453.548,76.562,457.178,80.727,457.668 M91.572,445.709c-5.701,2.583-5.679,12.56,0.445,14.653 c5.322,3.251,13.785-1.693,11.87-8.307C104.577,446.065,96.071,442.368,91.572,445.709 M65.739,469.404 c0,1.915,0.022,5.768,0.022,7.683c3.43,5.478,10.511,10.088,16.791,6.102C99.003,475.458,79.148,448.107,65.739,469.404 M119.342,502.563c-5.211,2.695-5.768,9.954-1.024,13.451c5.701,6.146,17.259-3.029,12.493-9.821 C128.985,501.873,123.328,500.18,119.342,502.563z"/> <path fill="#068421" d="M1268.562,449.517c4.187-3.34,8.262-8.596,14.319-7.304c4.922,1.314,9.888,3.741,13.295,7.616 c-2.784,10.199-14.765,8.707-22.915,7.817c-0.178,0.98-0.557,2.917-0.735,3.897c1.403,0.2,4.254,0.601,5.679,0.802 c1.915,1.737,3.43,6.235,6.881,4.721c3.942-2.205,6.77-6.347,11.113-7.794c7.661-1.826,12.181,5.567,17.303,9.71 c-6.124,3.897-8.819,14.698-17.259,13.362c-4.142-2.472-7.327-6.213-10.845-9.465c-4.164,0.868-8.284,1.826-12.36,2.806 c7.616,5.233,15.121,11.001,18.551,19.976c-9.999,1.693-22.804,4.966-29.886-4.699c-0.356-3.986-1.336-7.883-2.606-11.669 l-3.741,3.318c-2.717-6.837-6.503-14.03-4.877-21.624c3.185-8.084,9.42-16.012,18.283-17.972 C1268.718,444.64,1268.607,447.891,1268.562,449.517z"/> <path fill="#282628" d="M496.499,478.378c24.372-60.263,144.719-13.78,95.937,94.401c66.67-11.153,127.65,76.451,90.659,114.599 c-8.952,9.531-24.073,7.817-35.186,3.541c-8.128-3.14-10.289-12.137-10.378-19.931c0.557-0.067,1.715-0.2,2.272-0.267 c1.492,6.169,2.695,13.896,9.576,16.39c70.586,23.74,41.76-116.655-59.148-111.637c-34.973,59.025-97.404,86.313-90.036,190.471 c1.759,21.913,9.687,42.535,16.68,63.156c-4.098-1.982-7.906-4.498-11.491-7.304c2.138,1.024,6.414,3.029,8.552,4.031 c-18.194-36.834-24.252-79.948-14.676-120.055c0.779-3.474,1.448-7.171-0.757-10.244c-18.848-36.625-49.939-89.515-90.793-92.753 c-40.222-1.883-65.144,38.414-71.129,45.207c8.128-24.252,30.532-42.29,54.694-49.283c-34.829-78.734,2.598-132.399,38.771-141.723 c-8.261,7.214-73.284,40.772-35.765,140.009c18.695,1.5,59.188-8.253,107.762,98.164c30.828-82.619,109.193-112.566,95.269-186.307 c-12.071-49.327-71.63-69.602-93.376-33.872c-21.221,34.029,20.745,78.407,39.885,61.62c3.897-9.175,0.156-18.885-4.12-27.147 c7.683,6.414,12.003,17.548,8.062,27.147C533.007,561.879,479.58,520.796,496.499,478.378z"/> <path fill="#231F20" d="M864.971,484.948c0.29-2.049,0.802-4.031,1.292-6.035c1.091,0.935,3.251,2.784,4.32,3.719 c-6.258,3.719-10.289,9.821-13.295,16.301c8.062-1.514,13.184-8.73,19.998-12.738c-2.383,4.209-5.456,7.95-8.24,11.892 c2.405-1.113,7.193-3.34,9.598-4.454c-1.18,1.871-3.585,5.59-4.766,7.46c1.804-0.49,5.434-1.47,7.26-1.96 c-1.514,2.472-2.361,5.189-2.316,8.106c-13.996,7.197-1.004,23.281-21.557,40.063c10.044-0.958,20.154-1.136,30.264-1.114 c-0.356,3.207,0.713,6.057,2.739,8.44c-1.269,3.095-2.561,6.191-3.853,9.309c0.468,0.935,1.425,2.806,1.915,3.741 c-3.407,2.227-6.97,4.543-11.268,3.452c-0.891,1.381-2.672,4.164-3.563,5.545c-6.391-4.699-11.291-11.357-18.217-15.232 c-4.899-1.47-4.966,5.3-8.663,6.725c-5.411,3.452-14.008,5.835-12.916,13.941c-8.173,3.385-15.745,9.977-25.098,8.885 c-4.81-0.267-8.975-3.095-13.384-4.677c8.195-12.515,20.198-21.69,30.242-32.536c1.715-5.857-5.946-7.215-9.197-10.311 c3.185-1.782,6.414-3.541,9.665-5.256c2.606,0.512,5.233,2.962,7.995,2.093c3.162-3.496,1.603-8.418,2.116-12.649 c-1.203-6.369,7.015-7.705,8.462-13.139C848.737,503.098,856.709,493.7,864.971,484.948z"/> <path fill="#231F20" d="M1603.474,483.612c11.847,4.855,27.881,3.385,34.896,16.279c2.717,6.124,8.351-1.269,12.092-2.316 c10.6,5.411,16.413,17.816,14.408,29.507c-5.367,4.498-14.653,1.403-18.996,7.438c11.113-0.624,21.98,9.709,32.447,2.851 c0.111,0.646,0.334,1.96,0.445,2.628c-1.136,0.223-3.385,0.713-4.498,0.958c1.403,2.427,2.895,4.833,4.365,7.26 c-10.4-7.995-23.65-5.144-35.787-5.79c5.1,4.877,12.003,6.948,17.704,10.979c0.713,10.578-7.75,20.132-16.925,24.363 c-5.723,2.45-8.663-3.786-12.36-6.792c-11.111,7.564-11.638,11.507-41.065,7.572c22.896-34.658,17.3-27.851,37.68-41.221 c-28.207,0.588-24.772,8.823-33.716,10.422c4.922-8.997,16.257-10.845,25.432-12.605c-8.106-5.434-16.858-10.244-22.025-18.951 c1.002-0.134,3.029-0.423,4.031-0.557c2.739,8.663,11.402,12.181,18.439,16.658c0.045,0.935,0.111,2.784,0.134,3.697l0.958-1.113 c1.737-0.379,5.234-1.158,6.97-1.537C1613.685,519.297,1614.312,520.077,1603.474,483.612 M1619.374,497.285 c-6.815,4.498-1.559,16.101,6.235,14.23c4.766,0.445,6.035-5.345,8.329-8.262C1631.556,497.82,1624.986,492.141,1619.374,497.285 M1644.494,506.661c-6.347,2.049-8.396,9.665-6.102,15.455c3.697,7.327,15.767,7.728,19.686,0.423 C1664.292,514.455,1653.513,502.363,1644.494,506.661 M1635.364,550.933c-6.614,4.61-5.278,15.633,2.026,18.818 c7.104,4.899,17.482-2.628,16.613-10.756C1653.914,550.354,1641.755,544.541,1635.364,550.933 M1606.213,565.586 c5.671,11.134,6.734,8.465,15.611,7.572C1630.037,560.639,1614.788,548.977,1606.213,565.586z"/> <path fill="#262122" d="M225.123,505.681c83.003-16.755,87.997,103.359,32.491,88.566c5.341-1.052,38.432-1.164,31.534-42.023 c-4.359-32.669-36.531-49.196-61.085-40.976c-13.362,21.267-18.862,47.1-17.882,72.064 c0.509,101.822,94.811,104.095,142.837,157.089c-2.249-0.846-4.498-1.692-6.725-2.539c-47.041-46.719-146.86-49.18-142.08-167.645 C206.193,547.659,211.739,524.254,225.123,505.681z"/> <path fill="#068421" d="M521.085,557.792c5.011-2.672,9.62-7.148,15.655-6.97c5.011-0.713,8.44,3.34,12.137,5.946 c0.089-1.514,0.267-4.543,0.356-6.057c9.665,3.207,16.769,12.07,19.419,21.713c-0.512,6.636-3.608,12.76-5.701,19.018 c-1.069-0.891-3.229-2.65-4.298-3.541c-0.891,5.478-1.18,12.36-6.503,15.633c-7.416,4.877-16.368,1.158-24.474,1.091 c5.601-17.946,12.447-12.815,16.814-21.512c-4.053-0.423-8.084-1.047-12.159-0.958c-5.1,2.606-8.752,11.625-15.277,8.307 c-4.098-4.142-9.309-8.039-11.335-13.607c3.63-4.298,7.995-8.329,13.451-10.155c6.258,1.069,9.554,8.039,15.522,9.286 c3.519-2.984,7.126-5.879,11.268-7.995c-4.832-3.073-10.801-0.245-16.101-1.269C526.029,564.74,523.134,561.511,521.085,557.792z"/> <path fill="#262223" d="M1574.88,558.593c2.271,13.562-1.693,26.879-4.699,39.974c54.429-16.682,102.271,21.678,104.177,57.21 c-7.242-10.933-27.168-68.451-105.625-53.647c-13.228,35.564-42.668,62.466-75.672,79.77 c57.775,16.49,91.359,39.952,126.179,30.509c12.76-3.207,22.314-12.582,32.959-19.664c-34.68,57.9-109.791,8.347-161.254-7.794 c-4.231-1.225-8.195,1.581-12.048,2.828c-30.833,13.261-75.925,18.799-98.921,15.655c1.225-0.913,2.494-1.804,3.808-2.65 c16.368,0.668,32.669-2.271,48.792-4.966c37.372-50.658-8.113-74.589-40.441-65.072c-14.119,3.585-23.227,21.757-15.633,34.674 c8.551,11.135,27.592,5.656,32.558-6.302c1.759-5.812-1.091-11.38-3.185-16.635c3.764,3.118,8.641,6.414,7.817,12.07 c-0.111,18.929-28.349,29.73-40.642,14.854c-10.266-12.805-3.274-33.07,10.021-40.909c34.678-18.835,96.892,11.245,53.825,66.452 c37.814-7.638,73.979-25.365,100.881-53.358c2.977-60.185-40.057-76.839-65.45-72.643c-8.507,1.492-15.522,6.792-23.249,10.199 c20.752-32.071,97.438-17.267,92.73,58.168C1570.581,602.497,1569.193,579.148,1574.88,558.593z"/> <path fill="#068421" d="M1200.016,576.52c6.659-9.398,19.129-5.389,26.256,1.247c-0.022,4.387-4.944,6.414-8.017,8.618 c-5.011,1.292-10.222-0.156-15.299,0.111c1.381,4.677,7.26,6.547,10.845,9.509c5.723-2.138,9.13-9.71,15.878-9.086 c5.144,2.227,9.108,6.369,13.384,9.91c-4.387,4.833-7.995,10.489-13.295,14.408c-6.325,0.735-9.086-7.037-14.498-8.952 c-3.875-0.156-7.75,0.267-11.602,0.423c0.067,0.868,0.178,2.561,0.245,3.43c8.195,3.095,14.898,9.687,16.769,18.439 c-7.928-0.045-16.346,3.563-23.828-0.379c-2.583-1.693-4.231-4.432-6.213-6.703c-0.223-3.207-0.468-6.391-0.735-9.554 c-1.804,1.18-3.563,2.383-5.323,3.608c-3.418-15.046-13.994-20.673,11.847-41.176 C1197.322,571.91,1199.126,574.984,1200.016,576.52z"/> <path fill="#252222" d="M95.87,583.023c22.481,1.973,48.286,25.473,43.337,37.48c-4.031,5.879-10.645,9.22-17.036,11.892 c4.209-4.677,9.465-8.329,13.25-13.384c1.686-10.255-25.243-34.122-46.276-29.529c-16.456,6.411-23.434,39.73-8.685,60.395 c11.402,16.19,29.106,26.033,44.428,38.014c21.78-15.477,46.833-26.234,73.178-30.821c4.12,0.445,8.217,1.158,12.337,1.692 c-50.129,7.082-97.051,35.631-124.643,78.389c-1.982-0.312-3.964-0.624-5.946-0.958c11.113-18.105,26.144-33.56,42.802-46.588 c-16.947-11.202-36.077-20.978-47.679-38.326C57.609,625.851,69.211,580.89,95.87,583.023z"/> <path fill="#068421" d="M906.37,627.406c2.606-4.966,8.396-7.126,13.406-8.819c5.857-1.804,10.11,3.407,14.163,6.636 c0.289-2.361,0.579-4.699,0.891-7.037c25.272,13.765,17.353,26.985,14.364,40.308c-1.782-0.779-3.563-1.559-5.3-2.294 c-3.031,15.328-6.796,15.578-12.271,17.704c-6.659-0.156-13.273-0.779-19.909-1.225c2.761-5.679,5.746-11.447,10.689-15.566 c1.158-0.423,3.452-1.247,4.61-1.67c6.057-0.445,2.784-8.151-2.071-5.924c-2.94,0.334-5.812,0.69-8.685,1.203 c-4.209,2.984-7.928,9.91-14.052,7.594c-3.163-2.49-4.96-4.847-12.627-13.918c4.231-3.006,8.128-6.547,12.783-8.908 c7.26-1.448,12.048,5.835,17.459,9.398c1.581-2.138,3.185-4.276,4.81-6.414c1.759-0.334,5.278-1.024,7.037-1.381 C924.985,629.821,919.345,641.612,906.37,627.406z"/> <path fill="#231F20" d="M392.367,634.087c1.804-1.225,3.608-2.383,5.412-3.585c-9.242,10.912-9.375,27.882-0.891,39.261 c6.57,9.064,17.058,16.658,17.615,28.817c0.158,33.695-33.659,58.693-54.761,42.023c-15.878-11.692-21.468-33.538-18.038-52.267 c1.203-8.485,10.667-11.135,15.589-17.058C372.731,653.959,355.158,631.312,392.367,634.087z"/> <path fill="#068421" d="M1072.145,640.79c2.984-2.828,5.278-7.616,9.954-7.483c7.015-1.203,12.582,3.764,18.194,7.037 c-12.833,17.386-18.214,3.25-25.031,10.556c4.476,1.425,8.284,4.075,10.934,8.017c4.788-2.895,8.886-6.792,13.673-9.62 c6.792-0.379,11.714,5.567,15.923,10.11c-3.608,5.322-7.772,10.556-13.094,14.253c-4.632,0.713-7.171-4.253-10.489-6.569 c-3.875-4.721-10.511-1.47-15.656-1.937c0.223,0.802,0.69,2.427,0.913,3.229c7.616,3.608,15.099,9.487,16.145,18.439 c-8.062,0.334-17.192,4.32-24.496-0.913c-5.167-3.385-5.412-10.088-6.236-15.522c-1.759,1.136-3.496,2.294-5.211,3.452 c-1.203-7.126-5.745-13.807-4.632-21.178c3.363-8.641,9.865-16.836,19.063-19.53 C1072.122,635.045,1072.145,638.875,1072.145,640.79z"/> <path fill="#068421" d="M814.219,647.894c3.563-2.984,6.859-7.549,12.026-7.282c6.235,0.49,11.202,4.833,16.413,7.861 c-3.34,3.652-6.77,7.75-11.781,9.041c-4.476,0.401-11.112-3.764-13.362,1.937c5.055,0.379,8.551,3.63,11.313,7.616 c3.83-3.051,7.327-6.57,11.58-9.064c7.438-2.717,12.382,4.944,17.793,8.552c-4.966,5.011-8.017,15.143-16.368,14.386 c-4.588-2.628-8.195-6.636-12.56-9.576c-3.853,1.18-7.794,1.982-11.736,2.695c8.039,5.345,16.658,10.89,19.152,20.956 c-8.618-0.267-18.706,3.83-26.234-1.982c-4.432-3.029-4.164-8.93-5.278-13.584c-1.381,0.267-4.12,0.779-5.501,1.024 c-1.492-6.235-5.1-12.226-4.855-18.729c3.006-9.041,9.598-18.328,19.464-20.354C814.263,643.017,814.241,646.268,814.219,647.894z"/> <path fill="#262324" d="M889.579,644.398l2.917,3.452c-4.81,4.409-10.868,8.841-11.536,15.878 c-1.804,11.38,8.329,24.541,20.532,21.69c2.16-2.138,4.387-4.209,6.681-6.213c-2.338,4.343-4.588,10.511-10.533,10.333 C879.44,689.348,863.936,661.177,889.579,644.398z"/> <path fill="#3F4549" d="M223.875,650.099c1.804,2.361,3.697,4.654,5.545,6.993c-26.974,2.375-14.187,1.834-31.356-0.022 c9.019-1.804,18.194-2.717,27.392-3.006L223.875,650.099z"/> <path fill="#394E45" d="M916.258,650.722c2.873-0.512,5.746-0.869,8.685-1.203c0.512,1.47,1.559,4.432,2.071,5.924 c-1.158,0.423-3.452,1.247-4.61,1.67C920.333,654.954,918.284,652.838,916.258,650.722z"/> <path fill="#292728" d="M931.624,673.905l4.588-1.782c5.322,13.495,8.262,27.681,11.558,41.755 c36.353-42.212,79.732-31.3,94.133-7.438c8.752,14.898,0.334,35.297-14.965,42c-8.217,3.652-20.087,0.824-22.381-8.797 c-2.383-5.256,1.893-9.598,4.855-13.384c-0.646,4.276-2.361,8.663-1.225,13.005c2.093,5.478,8.707,7.082,13.918,5.723 c14.854-4.432,22.604-24.162,13.852-37.212c-13.791-19.762-52.793-28.094-88.054,10.756c4.882,24.51,10.054,79.578,7.661,93.22 l-1.915-1.537C937.75,672.669,939.102,709.742,931.624,673.905z"/> <path fill="#068421" d="M437.062,688.469c6.169-3.051,11.936-9.042,19.419-7.505c3.363,1.114,5.501,4.298,8.039,6.636 c0.445-1.537,1.381-4.654,1.848-6.213c8.863,3.274,15.811,11.202,18.283,20.265c0.557,6.659-2.895,12.827-4.543,19.107 c-1.425-0.245-4.253-0.779-5.679-1.047c0.352,20.778-15.46,16.181-30.955,15.9c1.848-10.378,11.023-15.232,18.15-21.512 c-4.142-0.646-8.217-1.648-12.382-2.004c-3.764,2.628-6.503,6.57-10.511,8.841c-8.329,1.603-11.914-8.329-17.259-12.849 c15.867-17.052,17.678-10.019,28.995-0.356c2.138-2.294,4.231-4.588,6.325-6.904c1.425-0.156,4.254-0.468,5.656-0.646 c-0.334-1.002-1.024-2.984-1.381-3.986c-4.543,0.49-9.041,1.67-13.651,1.559C443.141,695.729,440.001,692.077,437.062,688.469z"/> <path fill="#068421" d="M577.07,688.18c13.925-7.778,17.652-12.721,27.971-0.468c0.223-1.603,0.646-4.788,0.846-6.391 c7.839,1.247,13.117,7.928,16.969,14.342c5.077,8.128-0.624,17.148-2.628,25.298c-1.314-0.601-3.942-1.804-5.256-2.405 c-1.336,4.743-0.512,10.89-5.077,14.097c-7.416,5.634-17.303,2.16-25.833,2.672c1.269-10.378,10.422-15.811,18.038-21.379 c-4.075-0.891-8.128-1.915-12.271-2.361c-3.964,2.583-6.77,6.703-10.89,8.997c-8.507,1.648-11.981-8.819-17.504-13.384 c3.674-3.118,7.037-6.681,11.157-9.22c7.549-2.94,11.914,5.011,17.793,7.928c3.162,0.089,4.365-3.296,6.258-5.167 c1.314-0.334,3.964-0.98,5.278-1.292c-1.67-6.614-7.928-2.182-12.204-1.559C584.731,695.751,580.522,692.344,577.07,688.18z"/> <path fill="#292527" d="M834.506,756.48c-13.495-15.611-0.379-47.122,21.646-43.671c-5.924,2.962-13.339,4.476-16.858,10.667 c-29.469,48.787,70.141,38.031,113.218,114.866c0.156,1.225,0.468,3.674,0.624,4.899c-12.705-14.964-23.282-34.441-68.123-58.124 c-16.056-8.752-33.07-15.878-47.902-26.701c-9.375,12.159-16.39,29.329-9.309,44.161c3.897,7.327,15.054,5.634,16.546-2.85 c0.267,2.516,1.804,5.122,0.869,7.661c-6.197,8.557-25.081,6.322-26.189-14.609C818.161,779.017,824.663,765.811,834.506,756.48z"/> <path fill="#231F20" d="M1119.757,776.723c-10.155-2.018-5.705-1.374-23.45-22.225c6.77,1.737,13.184,4.588,19.842,6.77 c7.126-9.22,13.005-25.476,2.516-34.273c-2.828,0.156-5.657,0.334-8.463,0.512c3.452-16.012-9.732-27.102-19.508-37.368 c-1.96,9.153-5.367,17.86-8.73,26.568c-4.253,7.549-2.026,16.323-1.693,24.474c-7.171-8.062-9.888-18.751-9.264-29.374 c-0.869,0.557-2.561,1.648-3.407,2.182c-2.294,8.774,2.027,17.504,5.901,25.209c-5.723-2.45-11.491-5.345-17.838-5.523 c-3.029,0.69-11.023-1.715-8.908,4.231c10.556-1.047,20.599,2.183,29.485,7.772l0.891-0.267c0.668,0.601,2.004,1.804,2.672,2.383 c-36.512-3.167-31.964,5.953-55.407,11.135c7.371,4.499,13.117,11.291,20.688,15.455c5.478,3.229,12.07,2.071,18.105,1.96 c0.245,4.499-0.423,10.533,4.654,12.738c10.556,2.94,21.267-1.269,29.262-8.151c-1.314-3.986-2.717-7.995-3.919-11.981 c-3.757,6.797-5.313,17.732-15.232,16.413c-8.641,0.089-14.119-11.936-8.217-18.372c3.942-5.634,12.894-5.946,17.148-0.423 l0.557,0.178c1.804-1.937,2.672-4.32,2.583-7.149c4.721,6.191,11.58,10.021,17.816,14.497c2.94,3.051,4.454,7.171,6.748,10.734 c-0.022-1.693-0.111-5.077-0.156-6.77c1.381,0.178,4.142,0.534,5.523,0.713C1119.891,778.26,1119.802,777.236,1119.757,776.723z M1061.611,763.74c0.468,5.991-7.438,10.756-12.36,7.193c-4.253-2.249-5.656-7.861-3.274-11.959c2.16-2.116,4.899-3.496,7.46-5.1 C1056.89,756.48,1062.413,758.396,1061.611,763.74z M1119.623,744.099c-0.29,7.861-8.997,11.357-15.856,10.088 c-6.057-4.365-9.687-13.362-3.541-19.285C1106.796,726.884,1121.65,733.877,1119.623,744.099z M1089.916,713.433 c2.917-5.345,9.22-4.209,13.674-1.67c3.207,5.835,1.136,11.692-4.32,15.143c-1.225,0-3.652,0-4.855,0 C1090.517,723.7,1085.328,718.399,1089.916,713.433z"/> <path fill="#068421" d="M78.723,737.997c0.267-0.445,0.824-1.358,1.091-1.804c19.291,3.251,31.419-3.373,35.676,23.138 c1.692-3.073,3.407-6.124,5.144-9.131c10.278,7.906,11.84,24.819,10.133,37.547c-4.253,10.845-15.121,16.279-23.071,24.007 c-0.379-2.138-1.18-6.436-1.559-8.574c-17.459,15.66-9.397,13.542-27.191,15.321c-2.962-1.18-5.924-2.316-8.908-3.385 c-4.588-6.414-11.513-10.4-18.105-14.408c6.06-4.142,10.282-7.039,15.321-9.531c7.661-2.45,16.056-0.045,23.561-2.784 c-0.111-3.63-4.454-4.009-6.681-5.924c-5.522-9.983-14.435-5.104-22.425-2.94c-3.875-0.601-9.331-0.156-10.957-4.721 c-2.427-8.485-2.873-17.415-5.812-25.766c9.42-1.67,18.996-3.274,28.572-1.915c6.049,10.492,4.033,12.812,10.534,25.231 c3.251-1.693,6.48-3.363,9.71-5.077c3.43,1.203,6.859,2.427,10.289,3.652c-0.913-2.561-1.848-5.122-2.806-7.639 C88.084,758.664,84.93,760.305,78.723,737.997z"/> <path fill="#272425" d="M73.511,747.127c1.715-3.073,3.43-6.124,5.211-9.131c0.713,2.561,1.425,5.144,2.138,7.75 c-1.024,1.782-3.073,5.322-4.12,7.104C75.694,750.935,74.603,749.02,73.511,747.127z"/> <path fill="#068421" d="M242.983,765.277c3.363-6.369,11.402-9.264,17.838-11.914c9.465-3.652,17.949,3.385,23.227,10.511 c-0.156-3.652-0.267-7.282-0.312-10.912c15.945,4.12,26.857,19.642,29.195,35.431c-2.812,6.562-4.371,10.106-8.24,24.252 c-2.205-2.093-4.409-4.187-6.614-6.213c-1.381,5.768-1.915,11.803-4.098,17.37c-7.299,14.194-24.21,9.133-42.78,8.084 c2.65-5.835,4.988-12.026,9.309-16.858c5.122-5.723,13.072-7.861,18.016-13.785c-0.001,0-17.592-3.14-17.593-3.14 c-8.307,3.34-12.582,15.433-22.759,13.807c-7.572-5.478-12.36-14.03-19.775-19.82c6.369-5.3,11.803-12.315,19.798-15.21 c11.068-2.405,15.789,13.161,25.721,12.671c3.986-5.077,8.373-9.955,15.455-9.732c-3.363-6.458-10.734-3.541-16.435-3.318 C254.474,778.126,247.904,771.089,242.983,765.277z"/> <path fill="#068421" d="M1669.748,755.679c-2.383,6.904-3.095,15.633-9.643,20.132c-5.879,3.096-15.143,3.652-14.921,12.382 c3.118-1.024,6.124-2.516,9.42-3.006c3.63,0.868,7.104,2.94,10.957,2.806c5.679-6.436,3.875-17.058,10.912-22.626 c8.373-5.189,18.283,0.935,27.369,0.379c-2.873,8.574-2.739,17.838-5.434,26.367c-7.549,12.382-24.608-6.258-31.957,6.057 c-1.982,3.363-8.084,3.185-7.282,8.084c9.459,4.428,13.853-6.528,37.992,11.669c-11.291,5.634-19.753,18.105-33.427,17.838 c-9.843-0.423-13.25-10.868-20.933-15.076c-0.156,3.073-0.245,6.146-0.267,9.242c-7.26-7.371-17.259-12.337-22.448-21.512 c-4.209-12.404-2.717-27.681,5.255-38.304c4.476-4.142,6.48,3.853,8.017,6.881C1634.338,771.029,1634.29,748.508,1669.748,755.679z "/> <path fill="#272425" d="M365.02,761.268c3.897,1.826,7.705,3.897,11.291,6.302c-1.091-0.022-3.274-0.044-4.365-0.067 c-21.78,7.238-43.27,15.945-62.31,28.928c1.024-2.717,2.16-5.389,3.296-8.039c17.949-10.021,36.945-19.196,57.5-22.091 C369.073,765.054,366.378,762.516,365.02,761.268z"/> <path fill="#068421" d="M1337.709,772.715c6.792-10.823,20.065-4.61,27.48,1.96c-3.496,2.873-6.703,6.28-10.89,8.151 c-4.654,0.178-9.264-0.468-13.874-0.713c0.29,3.407,3.407,4.253,6.124,5.367c0.735,1.247,2.205,3.741,2.94,4.988 c6.926-1.603,10.556-10.489,18.127-9.554c4.81,2.45,8.952,6.08,12.849,9.821c-4.008,5.033-8.062,10.155-12.939,14.386 c-5.189,0.646-8.151-4.276-11.803-6.948c-3.92-4.187-10.2-1.024-15.121-1.358c2.271,5.367,8.774,6.436,12.226,10.801 c2.628,3.207,4.12,7.126,5.835,10.868c-15.06-0.204-28.732,8.382-31.356-16.39c-1.67,1.113-3.318,2.249-4.944,3.407 c-3.427-11.685-13.7-24.482,12.07-41.132C1335.527,768.484,1336.618,770.599,1337.709,772.715z"/> <path fill="#068421" d="M1466.093,781.779c15.806-21.563,29.459-6.058,41.065,0.022c-5.077,5.835-10.845,13.584-19.53,13.028 c-6.213-0.445-14.542-4.031-18.217,3.229c3.162,0.401,6.28,1.024,9.398,1.871c3.251,2.828,4.788,10.155,10.467,7.638 c6.926-4.142,11.669-13.406,20.755-12.894c8.663,2.138,13.607,10.534,21.156,14.787c-6.926,5.901-12.137,13.429-18.506,19.842 c-11.38,4.253-15.589-10.934-25.053-13.139c-5.189,1.537-10.444,2.695-15.856,1.96c0.69,6.102,7.215,7.327,11.491,10.289 c7.817,4.788,11.335,13.651,15.299,21.49c-12.783-0.2-27.77,6.235-38.883-2.606c-6.703-4.788-6.08-13.651-7.728-20.777 c-3.185-0.356-5.3,1.18-6.325,4.565c-3.83-10.444-10.355-21.29-7.505-32.736c4.476-12.092,13.674-22.76,25.877-27.481 C1465.514,774.318,1465.937,778.037,1466.093,781.779z"/> <path fill="#282427" d="M61.709,779.529c2.138-0.579,4.276-1.225,6.436-1.782c-0.334,4.454-0.646,8.93-0.891,13.429 c-2.027,1.002-3.986,2.116-5.901,3.274C61.486,789.462,61.597,784.496,61.709,779.529z"/> <path fill="#272425" d="M131.39,782.313c14.319,14.03,6.525,38.749-10.244,46.922c-17.393,10.088-40.865,2.695-51.109-14.119 c2.984,1.069,5.946,2.205,8.908,3.385c33.294,28.263,68.575-8.989,51.821-30.754C131.011,785.921,131.234,784.117,131.39,782.313z"/> <path fill="#272224" d="M1126.772,783.226c16.307,15.388,20.593,37.838-10.778,51.866c5.434,17.727,1.114,38.949-13.985,50.619 c-21,16.88-56.164,8.529-67.789-15.589c-6.079-12.671,6.881-26.389,19.219-27.659c6.681-0.958,10.801,4.988,14.163,9.732 c-5.078-2.539-9.999-8.574-16.168-6.013c-37.457,13.231,6.859,56.686,40.731,39.15c24.583-11.816,29.965-51.527-0.869-70.461 c-30.608-19.91-78.759-15.318-121.681,51.198c0.334,6.926,0.49,13.918-0.267,20.844c0.334-11.602-2.027-23.027-2.695-34.562 c0.935,3.34,2.004,6.636,3.095,9.955c37.408-74.466,116.879-79.973,144.663-30.977 C1145.251,815.116,1129.652,798.527,1126.772,783.226z"/> <path fill="#068421" d="M657.619,802.2c6.28-3.964,12.827,0.111,17.482,4.499c0.267-1.203,0.824-3.585,1.091-4.788 c7.126,0.111,11.669,6.592,15.41,11.847c6.013,8.329,1.492,18.818-1.692,27.302c-1.626-1.002-3.185-2.093-4.766-3.14 c-0.935,5.322-0.846,11.847-5.835,15.255c-7.75,5.389-17.526,1.737-26.078,1.002c3.608-8.908,10.623-15.344,19.107-19.553 c-4.32-1.091-8.596-2.984-13.095-2.606c-5.1,3.051-8.685,11.001-15.655,8.774c-4.276-4.231-7.772-9.22-12.337-13.161 c4.565-3.563,8.329-9.598,14.564-10.021c6.659-0.579,9.598,6.904,15.477,8.552c3.274-2.516,5.991-6.28,10.534-6.325 c-0.134-0.958-0.379-2.917-0.512-3.875c-7.594,1.314-16.457,2.628-21.713-4.498C645.661,806.431,654.413,804.249,657.619,802.2z"/> <path fill="#068421" d="M823.127,828.255c8.016-6.904,9.862-10.617,22.181-3.474c1.648,1.67,6.146,2.338,5.166,5.456 c-11.568,15.232-20.89,0.62-24.251,10.11c1.581,0.245,4.721,0.713,6.302,0.935c1.871,1.96,3.43,6.124,6.948,4.721 c5.033-2.962,9.086-9.932,15.789-7.883c4.766,2.405,8.462,6.369,12.56,9.71c-6.146,3.786-8.73,14.431-16.992,13.451 c-4.81-2.361-8.284-6.792-12.827-9.643c-3.786,1.203-7.638,2.271-11.447,3.385c8.574,4.454,16.234,10.823,19.241,20.399 c-7.906-0.089-16.257,2.539-23.851-0.289c-6.748-2.828-6.948-10.823-8.574-16.88c-1.024,0.891-3.118,2.672-4.164,3.585 c-2.65-7.861-7.304-16.591-3.429-24.831c3.808-6.814,9.375-14.141,17.793-14.943C823.461,823.601,823.238,826.696,823.127,828.255z "/> <path fill="#242C21" d="M298.078,843.732c1.559-4.81,4.164-10.021,9.687-10.912c33.353-3.959,41.913,33.2,22.381,55.763 c-27.91,31.835-80.098-13.554-63.602-55.407c1.403,0.134,4.209,0.423,5.612,0.557c-7.438,18.818,0.468,41.822,16.747,53.291 c10.868,1.938,22.381,2.071,33.36,0.735c20.491-13.294,19.112-55.763-14.987-51.265C303.4,837.542,301.106,841.305,298.078,843.732 z"/> <path fill="#262223" d="M1239.278,838.922c0.646-0.802,1.314-1.581,2.026-2.361c24.995,7.327,182.693-35.261,236.169,102.551 c43.871,4.488,78.572-15.652,89.457-64.114c-18.354-42.111-38.111-30.229-55.807-28.973c25.459-15.227,47.303-3.66,59.215,22.826 c2.851,5.478,0.69,11.736,0.111,17.504c36.345-14.143,62.242,0.95,65.851,20.02c-7.594-7.995-15.722-16.702-27.213-18.395 c-13.273-1.982-27.792-1.826-40.152,3.63c-6.659,13.451-13.829,27.369-26.412,36.322c-17.838,14.141-41.51,17.682-63.579,14.631 c18.032,48.748,23.927,80.076,46.766,101.75c21.378,19.96,63.205,30.368,121.592,1.648c11.87-5.723,22.381-13.829,34.384-19.308 c-16.704,17.082-57.437,39.111-94.757,42.023c8.284,16.591,14.921,35.141,11.892,53.959c-1.158,10.333-5.99,20.956-15.455,26.1 c-9.732,5.189-21.201,2.583-31.2-0.401c-11.135-5.278-19.352-14.475-27.124-23.739c0.958-0.267,2.895-0.802,3.853-1.069 c33.21,43.047,88.946,25.758,54.471-54.65c-49.92-1.725-69.361-19.155-88.833-63.98c-17.326,15.143-34.384,30.888-48.28,49.282 c-43.021,60.208,8.996,101.457,52.846,93.71c-6.77,3.919-14.52,6.414-22.426,4.721c-33.766-5.957-66.089-35.294-45.875-85.693 c-11.847-5.345-24.185-13.072-28.349-26.122c-3.541-12.738-1.358-29.886,12.115-35.854c-3.554,7.736-23.786,37.415,17.749,58.146 c8.273-7.331,12.922-24.57,61.063-61.152c-27.854-85.083-36.505-99.209-69.704-128.273c13.47,46.641-15.679,85.262-49.728,90.526 c-31.72,6.107-52.67-16.774-52.601-37.836c0.468-11.335,9.331-19.864,17.637-26.478c-3.429,6.97-8.908,12.716-12.092,19.82 c-6.381,20.739,18.908,51.606,58.19,35.253c30.776-13.429,45.719-53.024,33.694-83.889c-3.519-3.585-8.128-5.812-12.471-8.195 C1344.307,830.587,1278.755,843.711,1239.278,838.922z"/> <path fill="#252122" d="M955.519,885.822c-0.267,3.185-0.713,6.347-1.247,9.531c-4.634-40.862-64.982-49.301-87.586-1.67 c-2.672,5.122-2.539,11.046-1.759,16.635c3.207,5.233,8.062,11.09,14.876,10.511c6.884-1.033,8.479-12.254,9.531-17.682 c0.757,3.029,1.47,6.057,2.138,9.108c-2.138,5.367-4.966,12.271-11.647,12.827c-9.799,1.047-17.058-7.149-20.778-15.255 C854.689,859.811,934.831,830.49,955.519,885.822z"/> <path fill="#068421" d="M481.178,899.585c8.418-10.155,22.715-4.498,33.939-7.193h0.868c17.035,22.74,14.613,18.348,8.284,39.194 c-1.514,0.111-3.029,0.223-4.543,0.356c-2.405,5.211-3.63,12.382-9.799,14.52c-7.327,2.561-15.121,0.156-22.559-0.579 c2.806-8.952,10.155-14.854,17.303-20.332c-3.407-0.779-6.814-1.648-10.266-2.049c-5.746,1.759-9.22,8.574-15.232,9.153 c-5.946-2.338-9.999-7.973-13.518-13.095c2.583-5.144,7.282-9.91,13.095-11.001c6.124,0.668,10.667,5.545,15.566,8.841 c3.875-2.873,7.683-5.812,11.447-8.841C497.056,907.29,485.253,909.806,481.178,899.585z"/> <path fill="#252122" d="M354.219,941.986c5.634-21.535,26.545-38.482,48.948-38.66c28.944,0.78,52.84,34.065,61.976,62.399 c13.518-5.055,27.971-11.068,42.668-8.062c42.619,9.451,51.599,81.936,6.28,75.917c7.705-1.826,17.437-2.182,21.913-9.843 c14.52-26.144-8.618-65.072-39.261-61.865c-27.948,3.585-54.538,19.731-69.77,43.559c-0.401-2.895-0.779-5.768-1.136-8.641 c10.333-12.181,22.715-22.425,36.7-30.153c-9.531-22.425-24.229-44.873-47.301-54.984c-34.352-13.104-82.129,36.687-37.591,59.326 c2.494-3.073,5.011-6.124,7.638-9.108c-1.113,4.142-2.182,8.351-4.142,12.204C368.221,976.622,350.265,954.739,354.219,941.986z"/> <path fill="#231F20" d="M976.653,918.959c22.352,0.099,21.729-7.483,55.897,4.81c6.169,4.476,12.649,8.997,16.903,15.5 c19.188,28.782-20.945,60.778-40.709,40.842c-5.723-6.28,0.312-14.275,4.498-19.441c-0.445,5.968-6.191,14.453,0.779,18.439 c25.094,13.495,62.302-36.053,1.782-55.473c-17.749-4.343-35.876,0.601-53.402,3.63 C966.921,924.126,971.731,921.431,976.653,918.959z"/> <path fill="#068421" d="M1237.875,925.996c4.12-3.251,8.574-8.574,14.475-6.347c4.788,1.782,10.689,3.741,12.961,8.752 c-2.516,3.095-5.523,5.857-9.108,7.638c-4.588,0.601-9.13-0.646-13.607-1.358c-0.379,0.757-1.158,2.271-1.537,3.029 c4.231,1.96,7.973,4.81,11.157,8.262c5.59-3.363,10.177-10.623,17.393-9.576c4.81,2.606,8.863,6.369,13.117,9.799 c-5.83,6.403-9.222,10.845-13.518,14.008c-4.988,0.98-8.084-3.83-11.847-6.102c-4.254-3.875-10.422-1.915-15.544-1.915 c6.681,6.636,14.876,12.337,17.816,21.78c-27.136,3.321-26.066,1.722-32.001-14.765c-1.67-0.2-3.296-0.379-4.944-0.557 c-1.737-5.122-3.496-10.244-4.877-15.455C1219.229,929.953,1237.875,911.896,1237.875,925.996z"/> <path fill="#068421" d="M858.023,940.316c6.28-7.349,17.326-10.133,25.276-3.764c2.472-0.891,5.278-4.387,7.794-1.737 c18.662,15.607,14.219,21.894,8.217,37.435c-1.024-0.178-3.095-0.557-4.12-0.735c-1.737,5.011-2.138,11.536-7.46,14.253 c-7.438,4.098-16.101,1.069-23.94,0.245c2.294-9.264,10.311-14.453,17.482-19.798c-4.12-0.958-8.284-2.806-12.56-1.893 c-4.855,2.65-8.373,10.244-14.787,8.062c-4.677-3.519-8.73-7.906-12.026-12.738c3.541-5.055,8.796-10.823,15.477-10.489 c4.766,2.427,8.886,5.924,13.273,8.975c3.875-2.94,7.705-5.946,11.424-9.064C873.456,949.001,861.697,950.27,858.023,940.316z"/> <path fill="#068421" d="M160.919,959.178c4.32-8.774,17.637-11.38,25.142-4.699c5.634-7.126,13.005,2.895,16.947,7.282 c7.527,8.195,2.962,19.508-0.735,28.327c-1.737-0.334-3.474-0.646-5.211-0.935c-1.136,4.588-0.646,10.511-5.144,13.451 c-7.371,5.501-16.903,2.071-25.142,1.292c0.958-9.754,10.533-14.342,17.014-20.243c-2.561-0.646-5.1-1.18-7.683-1.626 c-7.683-2.182-10.756,8.596-17.771,8.685c-5.79-2.583-9.799-8.106-13.495-13.094c11.943-18.368,18.343-8.723,28.126-1.514 c3.853-3.251,7.839-6.347,11.87-9.353C176.263,966.727,165.908,967.907,160.919,959.178z"/> <path fill="#068421" d="M1562.32,974.856c11.448-9.844,10.331-8.912,28.193,0.134c-2.138,2.561-4.12,5.345-6.814,7.349 c-5.679,4.253-13.829-1.247-19.152,3.919c1.759,0.401,5.233,1.247,6.993,1.648c1.292,2.026,2.605,4.075,3.942,6.124 c5.122-2.873,9.375-7.327,14.921-9.353c6.703-0.468,10.979,5.924,16.079,9.264c-8.225,10.281-11.17,14.302-16.168,14.631 c-4.075-2.494-7.46-5.946-11.513-8.44c-4.031-0.49-8.084,0.089-12.07,0.334c6.659,6.347,14.52,12.137,17.326,21.357 c-7.995,0.512-16.48,2.383-24.185-0.601c-5.434-2.004-5.077-8.529-6.592-13.117c-9.754-0.401-8.73-12.738-10.489-19.642 c3.296-8.329,9.019-18.395,18.862-19.196C1561.807,970.669,1562.141,973.475,1562.32,974.856z"/> <path fill="#068421" d="M378.292,987.171c6.013-3.652,12.493-9.509,20.02-6.325c4.588,1.693,9.375,0.557,14.052,0.846 c5.612,3.897,9.286,9.821,13.473,15.099c0.356,2.873,0.735,5.746,1.136,8.641c-2.873,5.501-5.456,11.135-8.039,16.791 c-0.178-1.336-0.534-3.986-0.713-5.3c-3.407,6.904-6.703,13.874-9.732,20.956c-0.29-0.802-0.846-2.45-1.113-3.251 c-7.505-0.2-15.032-0.445-22.448-1.559c2.539-9.019,10.133-14.631,17.148-20.109c-3.897-0.757-7.861-2.116-11.892-1.626 c-4.632,2.405-7.906,7.95-13.384,8.284c-6.146-2.539-9.821-8.707-14.342-13.295c4.543-4.276,8.997-10.645,15.99-10.222 c4.988,2.182,9.175,5.79,13.562,8.952c3.853-3.029,7.683-6.08,11.513-9.108c-5.768-0.379-11.625-0.245-17.281-1.581 C383.214,992.404,380.831,989.665,378.292,987.171z"/> <path fill="#252222" d="M285.584,995.032c4.498,3.919,6.792,9.888,5.545,15.834c-0.646,6.993-7.371,10.622-12.716,13.896 c4.253-6.414,12.449-13.384,8.084-21.824c-10.378-14.542-33.093-20.688-48.191-9.687c-28.238,18.461-32.469,63.023-9.175,87.074 c13.451,13.785,31.021,23.071,48.637,30.353c9.325-7.914,46.145-59.259,131.212-19.953c-5.805-48.091-0.694-53.671,9.242-73.801 c0.178,1.314,0.534,3.964,0.713,5.3c-12.869,29.922-12.443,98.227,44.294,149.05c40.219,35.319,92.619,54.605,145.131,61.776 c-26.157-30.393-48.828-71.664-57.211-100.258c-15.188-49.291,59.266-117.673,107.05-80.861c-2.093,0.579-4.187,1.18-6.258,1.804 c-43.437-27.333-112.587,34.996-93.243,84.713c12.613,33.192,31.488,67.82,53.803,94.979 c76.208,13.275,120.271-14.579,142.904-24.073c0.23-0.569,7.994-19.735,8.284-20.488c-1.626,10.355-4.743,20.51-10.623,29.307 c0.401-1.715,1.225-5.189,1.648-6.926c-50.191,30.354-92.372,34.437-150.253,26.612c-73.266-10.822-109.986-37.789-125.288-45.764 c-17.994,11.937-35.765,24.697-49.216,41.889c-22.359,28.46-38.215,64.537-34.496,101.349c4.075,34.473,38.571,59.861,72.398,57.99 c37.022,0,58.462-44.087,51.643-77.81c-10.049-38.627-52.062-59.065-73.579-10.689c-0.668-23.583,28.906-39.84,49.238-29.106 c51.44,27.603,32.45,110.794-14.876,121.681c-29.89,7.232-76.652-6.076-90.704-59.504c-6.993,21.468-19.04,44.005-41.577,52.133 c-41.825,12.673-54.785,0.593-66.675-32.825c0.223-10.044-0.646-20.577,3.474-30.019c12.925-32.987,46.915-38.688,51.799-19.931 c0.868,6.28-1.002,12.515-2.361,18.595c-0.891-6.124-0.935-12.315-1.782-18.439c-2.873-7.282-12.582-7.46-18.84-5.078 c-48.404,23.108-28.347,115.691,40.531,78.678c16.747-9.264,25.387-27.347,31.845-44.517c6.457-15.336-1.151-53.189,38.148-102.64 c14.742-17.838,32.803-33.248,54.093-42.735c-13.789-11.573-53.126-37.634-68.189-95.714 c-56.962-31.175-129.454-12.649-143.928,58.168c-1.514,1.848-3.162,3.585-4.766,5.367c-0.334-1.403-1.002-4.187-1.314-5.59 c2.338-14.297,8.507-27.481,15.7-39.907c-22.158-8.93-46.098-19.464-58.97-40.753 C184.875,1019.991,244.931,952.979,285.584,995.032z"/> <path fill="#242021" d="M1233.733,1000.243c26.3,13.184,41.243,43.604,39.306,72.487c14.141-6.592,29.374-13.161,45.363-10.801 c16.724,1.759,32.246,12.115,40.174,26.969c16.346,29.716,0.063,61.447-13.362,67.143c3.318-7.082,8.685-13.028,11.357-20.421 c13.577-33.493-12.684-70.934-47.056-68.479c-13.005-0.846-24.83,5.077-36.5,9.865c-9.843,50.365-43.335,72.261-99.01,81.752 c-6.213,0.69-12.783,3.029-18.84,0.445c29.953-7.082,62.466-12.36,86.317-33.56c29.062-24.363,34.362-72.131,11.068-102.084 c-41.461-55.024-106.703,4.174-75.561,33.026c9.042,10.712,23.339,13.384,34.741,20.51c-16.056-1.559-31.734-9.598-41.622-22.448 C1147.906,1025.635,1193.793,979.889,1233.733,1000.243z"/> <path fill="#068421" d="M1344.412,1003.227c11.607-6.347,10.527-8.606,27.347,2.695c-3.073,3.006-5.857,6.48-9.665,8.618 c-4.877,0.401-10.021-1.024-14.564,1.314c3.63,2.272,7.059,4.922,10.044,8.039c4.944-2.65,9.041-6.904,14.364-8.752 c6.547-0.445,10.845,5.634,15.7,9.131c-3.652,4.521-6.859,9.509-11.335,13.273c-6.993,3.296-11.268-4.61-16.368-7.75 c-3.897-0.067-7.661,1.114-11.402,1.915c3.296,3.608,7.594,6.08,11.335,9.22c2.784,3.363,3.786,7.75,5.3,11.758 c-8.952,0.045-19.686,3.274-27.057-3.452c-2.049-3.808-2.94-8.062-4.254-12.093c-6.903,0.401-7.572-7.705-8.908-12.738 C1322.206,1013.056,1339.127,993.698,1344.412,1003.227z"/> <path fill="#068421" d="M658.198,1051.931c2.606,1.648,5.233,3.251,7.906,4.832c10.623-4.276,18.083,6.08,21.691,14.653 c2.672,6.792-1.18,13.718-3.14,20.176c-1.782,0.445-3.563,0.935-5.322,1.448c-1.626,7.193-5.322,13.629-11.781,17.482 c-5.981-1.35-7.201-1.692-19.241-2.984c1.804-9.531,10.088-14.809,16.925-20.644c-3.474-0.579-6.881-1.381-10.4-1.403 c-4.922,2.004-8.529,6.28-13.295,8.596c-7.238-1.715-11.135-8.863-15.945-13.896c4.721-3.764,9.019-8.707,15.01-10.4 c5.278,2.561,9.821,6.325,14.542,9.732c2.427-3.14,4.855-6.235,7.327-9.331c-4.075-0.223-8.217,0-12.181-1.024 c-3.363-1.915-5.768-5.033-8.462-7.728c3.318-2.628,6.636-5.278,10.11-7.705C654.012,1053.111,656.105,1052.51,658.198,1051.931z"/> <path fill="#068421" d="M463.073,1077.941c6.525-6.48,17.281-9.665,24.675-2.695c5.523-7.416,13.005,1.292,16.658,6.169 c7.193,8.24,6.592,25.142-4.766,29.017c-1.626,4.498-1.715,10.533-6.547,12.983c-7.549,4.788-16.814,1.581-24.942,0.623 c1.826-3.652,3.407-7.483,5.924-10.734c3.741-3.608,8.663-5.857,11.959-9.999c-3.83-0.512-7.638-1.091-11.491-1.024 c-5.656,2.828-9.665,10.957-17.036,8.151c-4.498-3.897-7.772-8.93-11.38-13.584c4.276-3.185,7.973-7.416,12.916-9.554 c6.748-0.022,11.447,6.102,17.081,9.086c3.029-3.029,7.082-5.345,9.019-9.309C477.325,1086.805,465.032,1088.119,463.073,1077.941z "/> <path fill="#068421" d="M1083.747,1078.788c2.822-1.304,11.251-10.747,25.588,4.988c-13.828,9.987-6.023,5.6-23.628,6.458 c-0.067,5.144,7.104,6.703,10.244,10.044c4.877-3.407,9.22-8.574,15.477-9.175c5.879,0.757,9.242,6.213,13.005,10.177 c-4.164,5.256-8.618,10.311-13.807,14.609c-4.833-3.096-9.064-6.993-13.584-10.467c-4.031-0.423-7.683,1.759-11.357,3.029 c7.193,5.122,14.72,10.845,16.858,19.909c-27.845,1.503-26.214,2.332-30.198-14.119c-2.205-0.735-4.409-1.448-6.592-2.138 c-2.662-9.377-9.751-21.876,10.689-35.676C1079.026,1075.892,1081.32,1078.03,1083.747,1078.788z"/> <path fill="#135612" d="M661.984,1109.297c1.403,0.312,4.187,0.913,5.567,1.225c-3.385,6.814-5.411,15.054-12.36,19.263 C657.04,1122.814,659.557,1116.067,661.984,1109.297z"/> <path fill="#068421" d="M668.108,1141.877c12.783-2.516,26.278,3.073,35.409,11.959c7.973,7.549,7.215,19.33,8.841,29.351 c-4.498,0.045-10.444,2.383-6.703,7.638c6.48,7.75,3.296,19.263-4.654,24.586c-8.195,5.144-17.571,7.95-26.345,11.892 c-1.535-30.704,7.011-25.369,10.244-39.261c-5.857,0.913-11.803,2.294-17.058,5.167c-5.79,6.414-3.719,19.107-13.206,22.047 c-9.309-0.245-17.482-6.302-26.634-7.906c2.561-7.661,4.12-16.19,9.71-22.359c8.507-7.059,20.533,4.476,29.017-1.358 c1.47-6.28,4.142-12.159,7.906-17.393c-14.501,0.537-16.764,18.207-38.66,3.942c15.103-25.476,15.477-22.43,34.095-19.842 C669.4,1147.511,668.754,1144.683,668.108,1141.877z"/> <path fill="#068421" d="M257.926,1162.232c0.713-2.984,1.425-5.946,2.116-8.885c0.312,1.403,0.98,4.187,1.314,5.59 c1.603-1.782,3.251-3.519,4.766-5.367c4.588,2.472,9.153,5.033,13.673,7.661c0.935-1.002,2.828-3.029,3.764-4.031 c21.208,13.723,17.535,18.275,12.983,37.658c-1.537-0.156-4.61-0.49-6.124-0.646c-0.802,4.031-1.603,8.084-2.383,12.137 c-0.935,1.047-2.806,3.14-3.741,4.187c-8.529,0.156-17.081,0.156-25.61-0.468c2.717-6.525,11.424-13.139,5.812-20.51 c-5.011,1.381-8.73,5.3-12.961,8.084c-5.144-4.877-9.999-10.044-14.921-15.099c15.586-12.737,12.628-11.495,23.227-6.881 c4.186,3.568,4.916,3.488,7.839,5.924c1.314-1.715,2.628-3.452,3.964-5.122c1.915-0.713,5.768-2.16,7.683-2.873 c-5.806-1.972-11.779-1.425-18.439-1.425c-2.984-3.296-5.968-6.57-8.908-9.91C253.472,1162.254,256.456,1162.232,257.926,1162.232 M270.352,1188.265c0.111,1.225,0.289,3.674,0.379,4.899c3.541,0.245,5.367-1.715,5.701-5.122 C274.917,1188.109,271.889,1188.22,270.352,1188.265z"/> <path fill="#068421" d="M1266.268,1159.426c4.231-3.318,9.531-7.149,15.077-4.164c4.432,1.603,14.386,5.79,7.683,11.046 c-5.122,6.503-13.54,2.583-20.087,4.699c3.207,3.185,6.748,6.013,10.289,8.885c4.81-3.184,9.197-7.438,14.854-8.997 c6.458,0.913,10.801,6.28,15.143,10.6c-4.81,4.409-8.618,10.934-15.166,12.738c-5.679-0.891-8.841-6.948-14.208-8.685 c-3.697-0.044-7.282,1.158-10.823,1.96c7.171,5.411,14.52,11.068,18.35,19.486c-28.254,7.898-29.562-3.24-32.157-12.382 c-12.533-3.447-14.829-28.993,7.171-39.283C1263.663,1156.686,1264.954,1158.045,1266.268,1159.426z"/> <path fill="#333437" d="M299.815,1167.064c4.81,2.539,9.999,5.946,10.689,11.892c1.136,9.442,0.958,20.287-5.278,28.082 c-5.077,6.391-14.008,3.296-20.933,3.496c0.935-1.047,2.806-3.14,3.741-4.187c4.988-0.668,12.159,1.715,14.876-4.075 C308.789,1191.182,308.455,1176.662,299.815,1167.064z"/> <path fill="#2D3C33" d="M260.887,1172.164c1.002,0,3.029-0.022,4.031-0.022c1.381,2.494,1.759,5.189,1.113,8.106 c-2.182-1.381-4.231-2.917-6.191-4.588C260.108,1174.792,260.642,1173.032,260.887,1172.164z"/> <path fill="#ADD8E6" d="M264.918,1172.141c4.832-0.111,9.754-0.134,14.408,1.448c-1.915,0.713-5.768,2.16-7.683,2.873 c-1.336,1.67-2.65,3.407-3.964,5.122c-0.401-0.334-1.247-1.002-1.648-1.336C266.677,1177.33,266.299,1174.636,264.918,1172.141z"/> <path fill="#068421" d="M1470.836,1179.357c11.046-6.291,9.827-8.395,27.726,1.96c-3.029,3.318-5.835,7.327-10.333,8.73 c-4.743,1.047-9.799-1.47-14.319,0.713c3.496,3.118,7.082,6.258,11.09,8.774c5.612-2.405,9.398-8.863,15.923-8.908 c5.323,1.715,9.531,5.768,13.184,9.865c-3.519,5.278-7.995,9.999-13.117,13.763c-6.146,0.223-9.554-5.612-14.097-8.685 c-4.409-0.49-8.685,1.18-12.894,2.093c7.906,4.743,15.121,10.756,18.35,19.731c-31.76,6.445-28.407-5.404-31.846-15.054 c-1.781,0.267-3.563,0.534-5.3,0.824c-1.581-5.478-3.897-10.868-4.32-16.568c1.269-9.576,8.284-17.214,16.413-21.802 C1468.186,1175.927,1469.946,1178.221,1470.836,1179.357z"/> <path fill="#ADD8E6" d="M270.352,1188.265c1.537-0.045,4.565-0.156,6.08-0.223c-0.334,3.407-2.16,5.367-5.701,5.122 C270.641,1191.939,270.463,1189.49,270.352,1188.265z"/> <path fill="#231F20" d="M183.412,1232.536c7.817-4.12,15.477-8.574,22.759-13.562c-1.436,41.436,3.318,31.427-9.286,55.585 c11.87-4.944,18.216-16.591,23.071-27.77c0.646,10.489-6.837,18.261-13.25,25.521c9.42,0.401,20.599-2.116,28.082,5.189 c-11.424-2.583-24.207-5.679-34.941,0.891c8.73,1.782,18.194,2.917,25.209,9.019c7.215,6.169,15.076,11.558,22.069,18.016 c-17.903,7.673-23.106,11.655-40.308,5.679c-3.162,3.474-4.899,10.378-10.756,9.286c-7.928-0.067-15.032-4.944-20.02-10.756 c-7.572-6.814,4.053-13.807,7.171-19.82c-10.333,2.071-21.49,4.187-28.46,12.894c0.178-2.049,0.379-4.075,0.579-6.102 c-2.027-1.091-4.031-2.116-6.057-3.162c13.005,1.603,22.693-7.728,32.491-14.631c-7.171-0.022-14.765,2.004-21.691-0.045 c-4.009-8.841-3.942-20.087,1.782-28.149c3.207-5.167,9.754-2.182,14.609-2.227C178.29,1242.892,180.338,1237.458,183.412,1232.536 M188.021,1237.102c-5.1,2.071-6.325,9.954-1.893,13.317c4.231,5.011,14.03,1.269,13.629-5.322 C201.027,1238.861,193.299,1234.162,188.021,1237.102 M167.979,1254.672c-6.191,3.029-8.886,12.293-3.229,17.17 c5.723,7.817,20.043,2.828,19.419-6.903C185.483,1256.788,174.682,1250.107,167.979,1254.672 M187.843,1292.798 c-8.908,2.806-9.242,17.125-0.601,20.532c7.327,4.365,16.234-3.006,16.435-10.689 C202.497,1295.359,195.103,1290.014,187.843,1292.798 M215.925,1293.421c-2.383,1.826-4.031,4.409-5.901,6.748 c1.893,3.452,3.073,8.997,8.062,8.953c5.545,1.247,10.489-4.276,9.732-9.531C226.147,1294.98,220.891,1290.883,215.925,1293.421z"/> <path fill="#068421" d="M567.851,1255.986c3.43-9.398,17.637-11.135,24.964-4.721c0.869-0.98,2.606-2.962,3.474-3.942 c8.485,3.897,15.344,11.58,17.704,20.666c0.512,6.28-2.739,12.137-4.476,18.038c-1.67-0.111-3.318-0.2-4.988-0.289 c-4.926,16.529-4.175,18.572-31.935,14.453c8.891-17.614,12.585-12.367,17.882-20.377c-4.253-0.512-8.552-1.269-12.805-0.646 c-4.588,2.761-7.906,9.153-14.008,8.017c-5.612-3.318-8.752-9.442-12.76-14.386c4.276-3.207,8.195-7.238,13.317-9.064 c6.191-0.824,10.088,5.478,15.121,8.039c3.897-2.049,9.353-3.875,10.734-8.462C582.348,1262.6,571.503,1265.095,567.851,1255.986z"/> <path fill="#231F20" d="M1445.828,1263.179c23.772,26.541,28.595,23.814,29.017,52.022c6.369,0.312,15.589-1.024,18.15,6.659 c4.298,13.473,1.136,30.443-9.643,40.085c-9.754-1.225-18.283-6.792-27.881-8.841c27.905,34.459,20.307,27.001,36.878,33.115 c-3.385,0.134-6.748,0.29-10.088,0.445c0.022,3.274,0.067,6.57,0.111,9.888c-11.386-22.626-3.219-7.65-37.19-35.653 c2.472,9.799,8.663,17.994,12.271,27.302c2.452,5.123-18.769,20.411-40.085,15.477c-7.416-2.383-6.659-11.068-7.238-17.214 c-8.062,0.111-16.568,1.269-24.162-2.049c-9.019-3.563-15.299-11.246-23.294-16.368c-2.205-1.848-5.723-2.962-5.901-6.258 c56.447-22.842,44.745-17.509,75.85-17.281c-12.76-9.286-29.04-18.016-45.051-11.87c-0.69-1.537-1.358-3.051-1.982-4.543 c23.466,0.242,17.598-1.463,41.243,8.596c-11.962-23.032-10.814-17.389-12.07-40.13c1.581,0.49,3.185,1.002,4.81,1.514 c-4.899,15.232,4.543,30.999,14.876,41.644c1.826-4.855-0.824-9.977-1.091-14.854c-3.511-19.689,5.503-30.284,11.001-55.028 C1444.736,1268.168,1445.471,1264.827,1445.828,1263.179 M1453.199,1290.905c-5.968,1.759-10.489,7.661-9.019,14.03 c1.091,9.197,14.252,12.627,20.065,5.545C1471.927,1302.908,1463.532,1288.344,1453.199,1290.905 M1464.066,1324.198 c-8.908,5.278-9.531,19.775-0.891,25.61c9.041,7.95,25.009,0.557,25.476-11.268 C1489.988,1326.336,1474.088,1316.359,1464.066,1324.198 M1384.23,1364.506c0.022,1.982,0.067,5.946,0.089,7.928 c2.761,2.94,5.3,7.438,9.977,7.327c6.814,1.247,14.163-5.233,12.783-12.337c0.557-6.725-6.859-11.647-13.028-10.556 C1389.397,1356.934,1387.014,1361.499,1384.23,1364.506 M1425.585,1367.668c-10.622,4.387-12.315,20.978-2.717,27.28 c8.084,6.325,21.267,1.782,24.118-7.95C1452.108,1375.128,1436.942,1361.589,1425.585,1367.668z"/> <path fill="#068421" d="M1140.289,1282.71c3.14-5.033,6.414-12.671,13.429-12.337c10.89,0.713,24.363-5.055,32.179,5.567 c-5.768,6.703-14.208,8.975-22.737,7.705c-0.891,3.808,6.28,5.901,8.663,8.885c4.588-2.962,8.819-6.436,13.629-9.019 c6.904-0.802,11.402,5.924,15.878,10.133c-4.031,4.654-7.26,10.155-12.204,13.941c-6.636,1.002-10.155-6.191-15.411-8.886 c-3.853,0.334-7.549,1.47-11.268,2.427c6.614,5.322,15.477,10.044,16.234,19.553c-8.373,1.447-18.35,4.276-25.654-1.626 c-4.142-3.006-3.563-8.73-4.743-13.161c-1.693,0.223-3.363,0.468-5.033,0.735C1140.601,1299.145,1135.323,1290.37,1140.289,1282.71 z"/> <path fill="#252122" d="M1244.734,1273.156l3.095,0.045c0.177,44.017-9.21,97.805-43.225,126.046 c-27.726,19.241-68.323,8.596-88.922-16.279c11.885,6.091,75.262,55.2,109.945-21.446 C1237.919,1333.729,1242.573,1303.265,1244.734,1273.156z"/> <path fill="#068421" d="M923.095,1315.335c-0.891,2.405-1.759,4.855-2.606,7.304c9.654-2.686,19.532-9.864,33.182,15.567 c4.231,6.703-6.703,7.995-11.335,8.663c-10.734,2.405-16.234-12.426-27.146-8.084c6.391,3.964,9.821,10.155,9.554,17.793 c9.309,0.757,18.684-5.1,27.681-1.626c7.193,5.434,8.284,15.277,11.536,23.138c-9.375,2.516-18.061,7.973-27.815,8.774 c-7.661-4.677-6.748-15.143-12.181-21.446c-4.721-2.45-9.888-3.875-14.564-6.436c-0.757,1.091-1.448,2.227-2.093,3.43 c8.111,16.162,9.988,9.336,9.598,36.01c-19.111-8.125-34.057-10.594-34.451-26.612c0.958-5.879,2.873-11.558,3.986-17.392 c-2.65,0.423-5.278,0.913-7.906,1.381c1.492-8.329,2.004-16.947,4.899-24.964C888.221,1320.55,914.412,1306.509,923.095,1315.335z"/> <path fill="#068421" d="M1290.319,1360.23c9.388-10.637,18.855-16.576,39.261,0.535c-1.136,6.391-5.879,13.517-13.139,13.25 c-7.594,1.403-17.17-5.256-22.292,3.118c6.213,0.98,11.068,4.743,15.745,8.663c15.311,3.391,10.695-30.516,44.806,3.83 c-7.037,6.369-12.404,14.943-20.688,19.731c-9.464,0.022-13.763-10.289-21.646-13.941c-5.256,1.581-10.845,1.581-16.056,3.34 c2.116,5.144,8.062,6.703,12.204,9.843c7.416,4.387,10.333,12.939,13.896,20.31c-12.337,0.401-26.301,6.191-37.502-1.492 c-7.973-4.877-6.057-15.477-10.133-22.782c-1.826,1.581-3.608,3.185-5.389,4.788c-6.802-19.214-15.742-29.863,6.213-51.465 c3.563-3.229,8.106-7.149,13.317-5.59C1289.451,1354.952,1289.919,1357.58,1290.319,1360.23z"/> <path fill="#068421" d="M385.486,1387.777c10.444-1.136,21.624,0.757,30.019,7.393c5.278,5.478,6.146,13.562,9.041,20.377 c-1.381,0.423-4.187,1.247-5.567,1.67c7.273,16.565,10.198,20.566-17.727,37.012c-4.743-10.289-1.136-20.978,1.982-31.088 c-4.365,2.116-9.309,3.675-12.805,7.193c-1.737,6.48-1.136,14.965-8.017,18.64c-7.037-0.646-13.852-2.784-20.777-4.098 c1.626-7.215,1.225-17.014,8.863-20.822c5.991-0.601,12.026-0.49,18.038-0.958c0.891-5.345,2.004-10.667,3.095-15.967 c-4.966,2.272-8.663,6.369-13.05,9.487c-4.565,2.695-10.088,1.069-15.032,0.958c0.356-11.936,9.576-25.588,23.004-22.158 C386.198,1392.855,385.842,1390.294,385.486,1387.777z"/> <path fill="#231F20" d="M1344.613,1204.121c-11.023,9.865-14.119,28.884-4.944,40.798c-1.804-9.064-4.521-18.885-0.178-27.681 c4.855-12.605,18.974-20.221,32.202-17.905c34.233,5.072,60.201,50.196,30.71,86.896c-24.963,28.901-86.55,58.86-142.525-11.046 c-31.209-36.883-57.81-84.795-110.412-115.379c-103.065-48.494-207.261,0.363-246.123,43.648l3.452-1.047 c61.749-50.11,124.118-59.657,143.104-56.208c98.657,90.784,59.907,207.733-9.665,199.312c-46.756-5.143-93.259-45.395-83.8-91.55 c12.216-54.582,62.99-57.835,89.724-36.433c29.299,20.804,23.576,64.505-6.124,69.837c-10.511,1.982-19.018-5.723-27.28-10.823 c15.203,24.431,49.098,16.422,57.032-15.366c5.856-46.65-53.513-78.54-92.33-51.309c-29.485,22.09-40.351,70.447-7.906,105.513 c50.772,55.909,148.776,54.333,144.685-61.13c-13.262-73.244-47.701-91.632-60.729-109.989 c66.98,0.507,113.559,17.898,170.362,94.445c7.794,10.667,17.504,20.176,22.938,32.425c1.203,0.824,3.63,2.472,4.855,3.296 c17.303,21.601,38.727,43.136,67.254,47.88c40.886,7.251,87.365-16.709,99.5-56.498 C1432.184,1216.718,1372.179,1176.154,1344.613,1204.121z"/> </g> </svg>