<svg width="49" height="55" viewBox="0 0 49 55" fill="none" xmlns="http://www.w3.org/2000/svg">
  <style>
    @media (prefers-color-scheme: dark) {
      path {
        fill: #ffffff;
      }
    }
  </style>
<path d="M46.48 12.1525L26.2999 0.5025C25.1399 -0.1675 23.6999 -0.1675 22.5399 0.5025L2.34998 12.1525C1.18998 12.8225 0.469971 14.0725 0.469971 15.4125V38.7225C0.469971 40.0625 1.18998 41.3125 2.34998 41.9825L22.5299 53.6325C23.1099 53.9625 23.7599 54.1325 24.4099 54.1325C25.0599 54.1325 25.7099 53.9625 26.2899 53.6325L46.47 41.9825C47.63 41.3125 48.35 40.0625 48.35 38.7225V15.4125C48.35 14.0725 47.63 12.8225 46.47 12.1525H46.48ZM45.12 38.7125C45.12 38.9025 45.02 39.0725 44.86 39.1625L26.0299 50.0325V42.1625C25.4899 42.2325 24.9499 42.2825 24.4099 42.2825C23.8699 42.2825 23.3299 42.2325 22.7899 42.1625V50.0325L3.95996 39.1625C3.79996 39.0725 3.69995 38.8925 3.69995 38.7125V15.4025C3.69995 15.2125 3.79996 15.0425 3.95996 14.9525L24.1399 3.3025C24.2199 3.2525 24.3099 3.2325 24.3999 3.2325C24.4899 3.2325 24.5799 3.2525 24.6599 3.3025L44.84 14.9525C45 15.0425 45.1 15.2225 45.1 15.4025V38.7125H45.12Z" fill="#363636"/>
<path d="M14.2999 21.1525C12.9599 23.2225 11.7 25.8125 11.49 28.7325C11.24 32.1325 12.44 35.4425 14.86 38.0525C16.98 40.3325 19.8099 41.7825 22.7899 42.1725V29.6525L14.2999 21.1625V21.1525Z" fill="#363636"/>
<path d="M30.36 15.6725C28.91 13.8425 27.4699 12.0125 26.0399 10.1625V28.7925L34.1899 20.6425C33.7399 19.9825 33.28 19.3725 32.87 18.8425C32.04 17.7825 31.2 16.7225 30.37 15.6725H30.36Z" fill="#363636"/>
<path d="M37.33 28.7325C37.19 26.8425 36.62 25.0925 35.87 23.5325L26.0299 33.3725V42.1625C29.0099 41.7725 31.84 40.3225 33.96 38.0425C36.38 35.4325 37.58 32.1225 37.33 28.7225V28.7325Z" fill="#363636"/>
<path d="M16.23 18.5025L22.7899 25.0625V10.1625C21.3499 12.0225 19.8999 13.8625 18.4399 15.7025C17.6999 16.6325 16.96 17.5725 16.23 18.5025Z" fill="#363636"/>
</svg>
