<svg width="126" height="30" viewBox="0 0 126 30" fill="none" xmlns="http://www.w3.org/2000/svg">
<path d="M25.32 6.6875L14.21 0.2775C13.57 -0.0925 12.78 -0.0925 12.14 0.2775L1.03003 6.69751C0.390029 7.06751 0 7.75749 0 8.48749V21.3175C0 22.0575 0.400039 22.7375 1.04004 23.1075L12.15 29.5175C12.47 29.6975 12.83 29.7975 13.19 29.7975C13.55 29.7975 13.91 29.7075 14.23 29.5175L25.34 23.1075C25.98 22.7375 26.3801 22.0475 26.3801 21.3175V8.48749C26.3801 7.74749 25.98 7.06751 25.34 6.69751L25.32 6.6875ZM24.57 21.3075C24.57 21.4075 24.52 21.5075 24.43 21.5575L14.07 27.5375V23.2075C13.77 23.2475 13.48 23.2675 13.18 23.2675C12.88 23.2675 12.58 23.2375 12.29 23.2075V27.5375L1.92999 21.5575C1.83999 21.5075 1.79004 21.4075 1.79004 21.3075V8.47751C1.79004 8.37751 1.84999 8.27751 1.92999 8.22751L13.04 1.81751C13.04 1.81751 13.13 1.7775 13.18 1.7775C13.23 1.7775 13.28 1.78751 13.32 1.81751L24.43 8.22751C24.52 8.27751 24.57 8.37751 24.57 8.47751V21.3075Z" fill="#069D4C"/>
<path d="M7.60006 11.6475C6.86006 12.7875 6.17001 14.2075 6.05001 15.8175C5.91001 17.6875 6.57006 19.5075 7.91006 20.9475C9.08006 22.2075 10.63 22.9975 12.27 23.2175V16.3275L7.60006 11.6575V11.6475Z" fill="#069D4C"/>
<path d="M16.44 8.62753C15.64 7.61753 14.85 6.60753 14.06 5.59753V15.8575L18.55 11.3675C18.3 11.0075 18.05 10.6675 17.82 10.3775C17.36 9.79753 16.9 9.20753 16.44 8.62753Z" fill="#97C039"/>
<path d="M20.28 15.8175C20.2 14.7775 19.89 13.8175 19.48 12.9575L14.06 18.3775V23.2175C15.7 22.9975 17.26 22.2075 18.42 20.9475C19.75 19.5175 20.41 17.6875 20.28 15.8175Z" fill="#069D4C"/>
<path d="M8.67004 10.1875L12.28 13.7975V5.59753C11.49 6.61753 10.69 7.63752 9.89001 8.64752C9.48001 9.15752 9.08004 9.67753 8.67004 10.1875Z" fill="#44E078"/>
<path d="M53.97 20.9574H37.1401V19.1174H53.97V20.9574ZM52.05 7.12744V12.5074C52.05 12.9974 52.03 13.5975 51.98 14.2975C51.93 14.9975 51.83 15.6974 51.68 16.3774C51.55 16.7774 51.39 17.0474 51.2 17.1974C51.01 17.3474 50.7 17.4174 50.29 17.4174H48.94C49.19 16.4474 49.3301 15.4875 49.3801 14.5175C49.4301 13.5475 49.45 12.6775 49.45 11.8875V8.82745H38.83V7.12744H52.06H52.05Z" fill="#363636"/>
<path d="M58.71 14.2975V16.7375C58.71 17.0575 58.8001 17.2975 58.9901 17.4575C59.1801 17.6075 59.42 17.6875 59.72 17.6875H68.27V6.44751H70.98V23.3575H68.27V19.5275H58.79C57.9 19.5275 57.2 19.3175 56.68 18.9075C56.16 18.4975 55.91 17.8975 55.91 17.1075V12.4875H62.08V8.88751H55.91V7.0675H64.83V14.3075H58.72L58.71 14.2975Z" fill="#363636"/>
<path d="M85.7 19.2875H76.53C75.65 19.2875 74.96 19.0875 74.44 18.6875C73.92 18.2875 73.67 17.6975 73.67 16.9075V7.01752H76.42V16.5375C76.42 16.8575 76.52 17.0975 76.73 17.2575C76.94 17.4075 77.18 17.4875 77.47 17.4875H85.71V6.4375H88.4V23.3475H85.71V19.2875H85.7Z" fill="#363636"/>
<path d="M102.05 19.2375H91.1V17.4175H93.6301C93.4001 17.1375 93.22 16.8675 93.1 16.6075C92.98 16.3475 92.89 16.0375 92.84 15.6575C92.79 15.2875 92.7601 14.8275 92.7401 14.2975C92.7301 13.7675 92.72 13.0775 92.72 12.2375V9.0275H91.09V7.20749H102.04V9.0275H100.45V17.4275H102.04V19.2475L102.05 19.2375ZM95.2601 13.1975V14.5275C95.2601 15.0075 95.31 15.4775 95.4 15.9075C95.48 16.3375 95.6 16.6875 95.78 16.9775C95.95 17.2675 96.21 17.4175 96.54 17.4175H97.95V9.01752H95.2601V13.1975ZM103.75 6.44751H106.44V11.4375H109.19V13.2375H106.44V23.3575H103.75V6.44751Z" fill="#363636"/>
<path d="M115.22 7.1275C116.12 7.1275 116.91 7.2975 117.58 7.6275C118.25 7.9675 118.81 8.4175 119.26 8.9975C119.71 9.5775 120.05 10.2475 120.27 11.0175C120.49 11.7875 120.6 12.5875 120.6 13.4275C120.6 14.2675 120.49 15.0775 120.27 15.8575C120.05 16.6375 119.72 17.3275 119.26 17.9175C118.81 18.5375 118.25 19.0275 117.58 19.3775C116.91 19.7275 116.12 19.9075 115.22 19.9075C114.32 19.9075 113.51 19.7275 112.84 19.3775C112.17 19.0275 111.61 18.5475 111.18 17.9375C110.73 17.3475 110.4 16.6575 110.18 15.8875C109.96 15.1175 109.86 14.2975 109.86 13.4275C109.86 12.5575 109.97 11.7475 110.18 10.9775C110.39 10.2075 110.72 9.53749 111.18 8.95749C111.63 8.40749 112.19 7.95749 112.86 7.61749C113.53 7.27749 114.32 7.11749 115.22 7.11749V7.1275ZM115.26 17.9975C115.76 17.9975 116.17 17.8575 116.49 17.5775C116.81 17.2975 117.07 16.9375 117.27 16.4875C117.45 16.0575 117.58 15.5775 117.66 15.0375C117.74 14.4975 117.78 13.9575 117.78 13.4275C117.78 12.9775 117.75 12.4975 117.68 11.9775C117.61 11.4575 117.5 10.9875 117.33 10.5475C117.14 10.1075 116.87 9.74749 116.54 9.45749C116.2 9.16749 115.78 9.01752 115.26 9.01752C114.74 9.01752 114.32 9.16749 114 9.45749C113.68 9.74749 113.42 10.1075 113.23 10.5475C113.02 10.9875 112.88 11.4675 112.81 11.9775C112.74 12.4875 112.7 12.9775 112.7 13.4275C112.7 13.8775 112.74 14.3675 112.81 14.8975C112.88 15.4275 113.02 15.9175 113.23 16.3675C113.42 16.8475 113.68 17.2375 114 17.5375C114.32 17.8375 114.74 17.9875 115.26 17.9875V17.9975ZM123.13 6.44751H125.82V23.3575H123.13V6.44751Z" fill="#363636"/>
</svg>
