<svg width="170" height="116" viewBox="0 0 170 116" fill="none" xmlns="http://www.w3.org/2000/svg">
<path d="M23.1347 93.4458V107.222H14.4027C12.292 107.222 10.3547 106.956 8.59333 106.422C6.82933 105.888 5.31067 105.066 4.036 103.952C2.76 102.886 1.768 101.511 1.06133 99.8298C0.353333 98.1485 0 96.1591 0 93.8631C0 89.7351 1.20533 86.5405 3.61733 84.2791C6.02933 82.0178 9.416 80.8871 13.776 80.8871H21.6387C21.4307 82.1165 21.152 83.0151 20.804 83.5831C20.456 84.1511 19.8867 84.4351 19.0987 84.4351H15.864C13.892 84.4351 12.2507 84.6565 10.9413 85.0965C9.63067 85.5378 8.58133 86.1525 7.79333 86.9405C7.004 87.7991 6.44133 88.8138 6.10533 89.9845C5.76933 91.1551 5.6 92.4951 5.6 94.0018C5.6 95.1151 5.70533 96.2351 5.91333 97.3591C6.12267 98.4845 6.54 99.5218 7.16667 100.474C7.76933 101.424 8.616 102.19 9.70667 102.77C10.796 103.35 12.1987 103.639 13.916 103.639H18.7507V96.6458H13.1507V93.4458H23.1347Z" fill="white"/>
<path d="M33.1536 92.7154C33.5469 92.1821 33.9656 91.6261 34.4056 91.0461C34.8469 90.4661 35.3803 89.9434 36.0069 89.4794C36.6323 89.0167 37.3683 88.6221 38.2149 88.2967C39.0616 87.9727 40.1336 87.7754 41.4336 87.7061V91.9154C40.1109 92.0074 38.9403 92.2981 37.9189 92.7847C36.8989 93.2714 36.0296 93.8514 35.3109 94.5247C34.6149 95.1967 34.0803 95.8927 33.7096 96.6114C33.3389 97.3314 33.1536 97.9807 33.1536 98.5594V107.431H28.4563V87.6007H33.1536V92.7154Z" fill="white"/>
<path d="M59.6276 96.0203C59.5343 95.487 59.4009 94.8843 59.2276 94.211C59.0529 93.539 58.7689 92.9017 58.3743 92.2977C57.9569 91.7177 57.3943 91.231 56.6876 90.8363C55.9796 90.443 55.0236 90.2457 53.8183 90.2457C52.2396 90.2457 50.9823 90.7323 50.0423 91.707C49.1036 92.6803 48.4943 94.119 48.2169 96.0203H59.6276ZM53.8183 86.9403C55.6956 86.9403 57.3076 87.2363 58.6529 87.827C59.9983 88.419 61.0769 89.259 61.8889 90.3497C62.6996 91.4163 63.2569 92.7043 63.5583 94.211C63.8596 95.719 63.9063 97.4243 63.6983 99.3257H48.3903C48.4369 100.392 48.7143 101.274 49.2249 101.97C49.7356 102.664 50.3609 103.21 51.1036 103.604C51.7996 103.999 52.5876 104.271 53.4689 104.422C54.3503 104.574 55.1969 104.648 56.0089 104.648C56.7049 104.648 57.4996 104.619 58.3916 104.56C59.2849 104.503 60.0449 104.498 60.6716 104.543C60.9263 104.591 61.1689 104.706 61.4023 104.891C61.6329 105.078 61.8529 105.298 62.0623 105.552C62.2249 105.831 62.3809 106.132 62.5316 106.456C62.6823 106.782 62.7929 107.095 62.8623 107.396C61.9583 107.628 60.9489 107.784 59.8369 107.866C58.7236 107.947 57.6103 107.987 56.4969 107.987C55.8929 107.987 55.2383 107.964 54.5303 107.918C53.8236 107.872 53.1329 107.791 52.4609 107.675C51.7876 107.606 51.1329 107.524 50.4956 107.431C49.8569 107.339 49.3183 107.222 48.8769 107.083C47.1383 106.248 45.7636 104.996 44.7556 103.326C43.7463 101.656 43.2529 99.8123 43.2769 97.795C43.2769 94.4083 44.1863 91.7537 46.0076 89.8283C47.8276 87.903 50.4316 86.9403 53.8183 86.9403Z" fill="white"/>
<path d="M82.4495 96.0203C82.3561 95.487 82.2228 94.8843 82.0495 94.211C81.8748 93.539 81.5908 92.9017 81.1961 92.2977C80.7788 91.7177 80.2161 91.231 79.5095 90.8363C78.8015 90.443 77.8455 90.2457 76.6401 90.2457C75.0615 90.2457 73.8041 90.7323 72.8655 91.707C71.9255 92.6803 71.3161 94.119 71.0388 96.0203H82.4495ZM76.6401 86.9403C78.5175 86.9403 80.1295 87.2363 81.4748 87.827C82.8201 88.419 83.8988 89.259 84.7108 90.3497C85.5215 91.4163 86.0788 92.7043 86.3801 94.211C86.6815 95.719 86.7281 97.4243 86.5201 99.3257H71.2121C71.2588 100.392 71.5361 101.274 72.0468 101.97C72.5575 102.664 73.1828 103.21 73.9255 103.604C74.6215 103.999 75.4095 104.271 76.2908 104.422C77.1721 104.574 78.0188 104.648 78.8308 104.648C79.5268 104.648 80.3215 104.619 81.2135 104.56C82.1068 104.503 82.8668 104.498 83.4935 104.543C83.7481 104.591 83.9908 104.706 84.2241 104.891C84.4548 105.078 84.6748 105.298 84.8841 105.552C85.0468 105.831 85.2028 106.132 85.3535 106.456C85.5041 106.782 85.6148 107.095 85.6841 107.396C84.7801 107.628 83.7708 107.784 82.6588 107.866C81.5455 107.947 80.4321 107.987 79.3188 107.987C78.7148 107.987 78.0601 107.964 77.3521 107.918C76.6455 107.872 75.9548 107.791 75.2828 107.675C74.6095 107.606 73.9548 107.524 73.3175 107.431C72.6788 107.339 72.1401 107.222 71.6988 107.083C69.9601 106.248 68.5855 104.996 67.5775 103.326C66.5681 101.656 66.0748 99.8123 66.0988 97.795C66.0988 94.4083 67.0081 91.7537 68.8295 89.8283C70.6495 87.903 73.2535 86.9403 76.6401 86.9403Z" fill="white"/>
<path d="M101.687 87.4621C102.893 87.4621 103.937 87.5434 104.818 87.7061C105.699 87.8687 106.442 88.0887 107.045 88.3661C107.602 88.6687 108.059 89.0047 108.419 89.3754C108.778 89.7474 109.05 90.1181 109.237 90.4887C109.514 90.9994 109.711 91.6887 109.827 92.5594C109.943 93.4287 110.002 94.2341 110.002 94.9767V107.431H105.271V96.2981C105.271 94.3741 104.986 93.0061 104.418 92.1927C103.85 91.3821 102.742 90.9754 101.097 90.9754C99.6808 90.9754 98.5848 91.2714 97.8088 91.8634C97.0315 92.4541 96.4221 93.0861 95.9821 93.7594C95.4715 94.5714 95.1355 95.4754 94.9728 96.4727V107.431H90.2768V87.7061H94.9728V91.4274C95.8541 89.8274 96.8981 88.7661 98.1035 88.2447C99.3101 87.7234 100.505 87.4621 101.687 87.4621Z" fill="white"/>
<path d="M115.464 87.4623H120.404V107.118H115.464V87.4623ZM117.899 78.2783C118.664 78.2783 119.308 78.533 119.83 79.0437C120.352 79.553 120.612 80.145 120.612 80.817C120.612 81.537 120.352 82.1517 119.83 82.661C119.308 83.1717 118.664 83.4264 117.899 83.4264C117.087 83.4264 116.42 83.1717 115.899 82.661C115.376 82.1517 115.116 81.537 115.116 80.817C115.116 80.145 115.376 79.553 115.899 79.0437C116.42 78.533 117.087 78.2783 117.899 78.2783Z" fill="white"/>
<path d="M141.242 97.2031C141.242 95.9285 141.091 94.8778 140.79 94.0551C140.488 93.2325 140.106 92.5765 139.642 92.0885C139.131 91.6258 138.558 91.3005 137.919 91.1151C137.282 90.9298 136.627 90.8365 135.954 90.8365H130.596V103.395C130.944 103.488 131.344 103.57 131.796 103.639C132.248 103.708 132.73 103.778 133.24 103.848C133.704 103.918 134.146 103.97 134.563 104.004C134.98 104.039 135.327 104.056 135.606 104.056C137.763 104.056 139.242 103.483 140.042 102.334C140.842 101.187 141.242 99.4765 141.242 97.2031ZM146.008 97.3418C146.031 98.9191 145.856 100.346 145.486 101.622C145.115 102.898 144.523 103.975 143.712 104.856C142.923 105.762 141.903 106.439 140.651 106.892C139.398 107.344 137.914 107.547 136.198 107.5C135.872 107.454 135.472 107.396 134.998 107.327C134.522 107.258 134.04 107.176 133.554 107.083C132.996 106.991 132.468 106.88 131.971 106.752C131.471 106.626 131.014 106.503 130.596 106.387V115.154H125.76V87.8098H136.371C138.25 87.8098 139.804 88.0538 141.032 88.5405C142.262 89.0271 143.248 89.6885 143.99 90.5231C144.686 91.4058 145.184 92.4258 145.486 93.5845C145.787 94.7445 145.962 95.9978 146.008 97.3418Z" fill="white"/>
<path d="M164.203 88.7146C164.272 88.6226 164.383 88.4706 164.533 88.2626C164.684 88.0533 164.933 87.9493 165.281 87.9493H169.491C169.375 88.2506 169.039 89.016 168.481 90.2453C167.925 91.4746 167.241 92.948 166.429 94.664C165.617 96.38 164.747 98.224 163.82 100.195C162.892 102.167 162.011 104.057 161.176 105.865C160.295 107.675 159.517 109.299 158.845 110.736C158.172 112.175 157.708 113.207 157.453 113.832C157.291 114.249 157.135 114.575 156.984 114.807C156.833 115.039 156.688 115.201 156.549 115.293C156.387 115.409 156.213 115.473 156.027 115.485C155.841 115.496 155.621 115.503 155.367 115.503H152.165L155.749 107.188C154.219 104.033 152.856 100.839 151.661 97.6026C150.467 94.368 149.151 91.1493 147.713 87.9493H151.748C152.328 87.9493 152.733 88.1586 152.965 88.576L158.115 102.283L164.203 88.7146Z" fill="white"/>
<path d="M111.197 49.461C111.197 49.6997 111.069 49.921 110.863 50.0397L86.814 63.9237V53.869C86.1286 53.9597 85.4393 54.021 84.746 54.021C84.0513 54.021 83.362 53.9597 82.6766 53.869V63.925L58.6286 50.041C58.422 49.921 58.294 49.6997 58.294 49.461V19.689C58.294 19.4517 58.422 19.2303 58.6273 19.1103L84.4113 4.225C84.514 4.165 84.63 4.13566 84.746 4.13566C84.8606 4.13566 84.9766 4.165 85.0793 4.225L110.863 19.1103C111.069 19.2303 111.197 19.4503 111.197 19.689V49.461ZM112.931 15.5277L87.1486 0.640995C85.6646 -0.213671 83.826 -0.213671 82.342 0.640995L56.558 15.5277C55.0766 16.3837 54.1566 17.9783 54.1566 19.689V49.461C54.1566 51.1717 55.0766 52.7663 56.5593 53.6223L82.342 68.509C83.0833 68.937 83.914 69.1503 84.7446 69.1503C85.5753 69.1503 86.406 68.937 87.1486 68.509L112.931 53.6223C114.414 52.7677 115.334 51.173 115.334 49.461V19.689C115.334 17.977 114.414 16.3823 112.931 15.5277Z" fill="#069D4C"/>
<path d="M71.8291 27.0238C70.1144 29.6638 68.5144 32.9731 68.2411 36.7091C67.9237 41.0545 69.4531 45.2811 72.5491 48.6105C75.2584 51.5238 78.8677 53.3705 82.6771 53.8691V37.8718L71.8291 27.0238Z" fill="#069D4C"/>
<path d="M92.3368 20.0241C90.4848 17.6854 88.6395 15.3454 86.8141 12.9881V36.7867L97.2288 26.3721C96.6501 25.5267 96.0715 24.7561 95.5368 24.0761C94.4715 22.7214 93.4048 21.3721 92.3368 20.0241Z" fill="#97C039"/>
<path d="M101.25 36.7097C101.074 34.2964 100.341 32.0617 99.3833 30.0684L86.814 42.639V53.8697C90.6233 53.3697 94.2327 51.5244 96.942 48.611C100.038 45.2817 101.567 41.0537 101.25 36.7097Z" fill="#069D4C"/>
<path d="M74.2979 23.6406L82.6765 32.0206V12.9873C80.8419 15.3593 78.9872 17.7113 77.1259 20.0606C76.1819 21.2526 75.2392 22.4446 74.2979 23.6406Z" fill="#44E078"/>
</svg>