<svg width="62" height="70" viewBox="0 0 62 70" fill="none" xmlns="http://www.w3.org/2000/svg">
<path d="M57.1804 49.7146C57.1804 49.9533 57.0524 50.1746 56.847 50.2933L32.7977 64.1773V54.1226C32.1124 54.2133 31.423 54.2746 30.7297 54.2746C30.035 54.2746 29.3457 54.2133 28.6604 54.1226V64.1786L4.61238 50.2946C4.40571 50.1746 4.27771 49.9533 4.27771 49.7146V19.9426C4.27771 19.7053 4.40571 19.4839 4.61105 19.3639L30.395 4.4786C30.4977 4.4186 30.6137 4.38927 30.7297 4.38927C30.8444 4.38927 30.9604 4.4186 31.063 4.4786L56.847 19.3639C57.0524 19.4839 57.1804 19.7039 57.1804 19.9426V49.7146ZM58.915 15.7813L33.1324 0.894596C31.6484 0.0399298 29.8097 0.0399298 28.3257 0.894596L2.54171 15.7813C1.06038 16.6373 0.140381 18.2319 0.140381 19.9426V49.7146C0.140381 51.4253 1.06038 53.0199 2.54304 53.8759L28.3257 68.7626C29.067 69.1906 29.8977 69.4039 30.7284 69.4039C31.559 69.4039 32.3897 69.1906 33.1324 68.7626L58.915 53.8759C60.3977 53.0213 61.3177 51.4266 61.3177 49.7146V19.9426C61.3177 18.2306 60.3977 16.6359 58.915 15.7813Z" fill="#069D4C"/>
<path d="M17.8128 27.2774C16.0981 29.9174 14.4981 33.2267 14.2248 36.9627C13.9075 41.3081 15.4368 45.5347 18.5328 48.8641C21.2421 51.7774 24.8515 53.6241 28.6608 54.1227V38.1254L17.8128 27.2774Z" fill="#069D4C"/>
<path d="M38.3205 20.2777C36.4685 17.939 34.6232 15.599 32.7979 13.2417V37.0403L43.2125 26.6257C42.6339 25.7803 42.0552 25.0097 41.5205 24.3297C40.4552 22.975 39.3885 21.6257 38.3205 20.2777Z" fill="#97C039"/>
<path d="M47.2337 36.9633C47.0577 34.55 46.3244 32.3153 45.3671 30.322L32.7977 42.8926V54.1233C36.6071 53.6233 40.2164 51.778 42.9257 48.8646C46.0217 45.5353 47.5511 41.3073 47.2337 36.9633Z" fill="#069D4C"/>
<path d="M20.2816 23.8942L28.6603 32.2742V13.2409C26.8256 15.6129 24.9709 17.9649 23.1096 20.3142C22.1656 21.5062 21.2229 22.6982 20.2816 23.8942Z" fill="#44E078"/>
</svg>