<svg width="183" height="43" viewBox="0 0 183 43" fill="none" xmlns="http://www.w3.org/2000/svg">
<path d="M34.8333 30.2053C34.8333 30.3507 34.756 30.4867 34.6293 30.5587L19.944 39.0373V32.8973C19.5253 32.952 19.104 32.9893 18.68 32.9893C18.256 32.9893 17.836 32.952 17.4173 32.8973V39.0373L2.73067 30.5587C2.60533 30.4867 2.52667 30.3507 2.52667 30.2053V12.024C2.52667 11.8787 2.60533 11.744 2.73067 11.6707L18.476 2.58001C18.5387 2.54401 18.6093 2.52534 18.68 2.52534C18.7507 2.52534 18.8213 2.54401 18.884 2.58001L34.6293 11.6707C34.756 11.744 34.8333 11.8787 34.8333 12.024V30.2053ZM35.8933 9.48268L20.148 0.392008C19.2413 -0.130658 18.1187 -0.130658 17.2133 0.392008L1.46667 9.48268C0.562667 10.0053 0 10.98 0 12.024V30.2053C0 31.2507 0.562667 32.224 1.46667 32.7467L17.2133 41.8373C17.6653 42.0987 18.172 42.2293 18.68 42.2293C19.1867 42.2293 19.6947 42.0987 20.148 41.8373L35.8933 32.7467C36.7973 32.224 37.36 31.2507 37.36 30.2053V12.024C37.36 10.9787 36.7973 10.0053 35.8933 9.48268Z" fill="#069D4C"/>
<path d="M10.7924 16.5033C9.74573 18.1153 8.76839 20.1366 8.60173 22.418C8.40706 25.0713 9.34173 27.6526 11.2324 29.686C12.8871 31.4646 15.0911 32.5926 17.4164 32.8979V23.1286L10.7924 16.5033Z" fill="#069D4C"/>
<path d="M23.316 12.2287C22.1853 10.8007 21.0586 9.3714 19.944 7.9314V22.4661L26.3026 16.1061C25.9506 15.5887 25.5973 15.1181 25.2706 14.7034C24.62 13.8754 23.968 13.0514 23.316 12.2287Z" fill="#97C039"/>
<path d="M28.7592 22.4183C28.6512 20.9437 28.2045 19.5797 27.6192 18.3623L19.9432 26.0383V32.897C22.2698 32.593 24.4738 31.465 26.1285 29.6863C28.0192 27.653 28.9525 25.0717 28.7592 22.4183Z" fill="#069D4C"/>
<path d="M12.3 14.4373L17.4173 19.5547V7.93199C16.2973 9.37999 15.164 10.816 14.0267 12.252C13.4507 12.9787 12.8747 13.7067 12.3 14.4373Z" fill="#44E078"/>
<path d="M68.9893 17.7951V28.5071H62.2C60.5573 28.5071 59.052 28.3004 57.6813 27.8857C56.3107 27.4711 55.1293 26.8311 54.1373 25.9644C53.1453 25.1351 52.3747 24.0671 51.8253 22.7591C51.2747 21.4524 51 19.9044 51 18.1191C51 14.9097 51.9373 12.4257 53.8133 10.6671C55.688 8.90841 58.3213 8.02975 61.712 8.02975H67.8267C67.664 8.98575 67.448 9.68441 67.1773 10.1257C66.9067 10.5684 66.464 10.7884 65.8507 10.7884H63.336C61.8027 10.7884 60.5267 10.9604 59.508 11.3031C58.488 11.6457 57.672 12.1231 57.06 12.7364C56.4453 13.4044 56.008 14.1924 55.7467 15.1031C55.4853 16.0137 55.3547 17.0564 55.3547 18.2284C55.3547 19.0937 55.436 19.9644 55.5987 20.8391C55.7613 21.7137 56.0853 22.5204 56.572 23.2591C57.0413 23.9991 57.6987 24.5937 58.5467 25.0457C59.3947 25.4964 60.4853 25.7217 61.82 25.7217H65.5813V20.2844H61.2253V17.7951H68.9893Z" fill="white"/>
<path d="M76.7801 17.2271C77.0868 16.8124 77.4108 16.3791 77.7534 15.9284C78.0961 15.4777 78.5121 15.0724 78.9988 14.7111C79.4854 14.3511 80.0574 14.0444 80.7161 13.7911C81.3734 13.5391 82.2081 13.3857 83.2188 13.3311V16.6044C82.1908 16.6764 81.2801 16.9017 80.4854 17.2817C79.6921 17.6604 79.0161 18.1111 78.4574 18.6337C77.9161 19.1564 77.5014 19.6977 77.2121 20.2564C76.9241 20.8164 76.7801 21.3217 76.7801 21.7724V28.6697H73.1281V13.2497H76.7801V17.2271Z" fill="white"/>
<path d="M97.3664 19.7969C97.2944 19.3823 97.1904 18.9129 97.0544 18.3903C96.9197 17.8676 96.6984 17.3716 96.3917 16.9023C96.0677 16.4516 95.6304 16.0729 95.0797 15.7663C94.5304 15.4596 93.7864 15.3063 92.849 15.3063C91.6224 15.3063 90.6437 15.6849 89.913 16.4423C89.1824 17.1996 88.709 18.3183 88.493 19.7969H97.3664ZM92.849 12.7356C94.309 12.7356 95.5624 12.9663 96.609 13.4263C97.6544 13.8863 98.493 14.5396 99.125 15.3876C99.7557 16.2169 100.188 17.2183 100.424 18.3903C100.657 19.5623 100.693 20.8889 100.532 22.3663H88.629C88.665 23.1969 88.881 23.8823 89.2784 24.4223C89.6744 24.9636 90.161 25.3876 90.7384 25.6943C91.2797 26.0009 91.8917 26.2129 92.5784 26.3303C93.2637 26.4476 93.921 26.5063 94.553 26.5063C95.0944 26.5063 95.7117 26.4836 96.4064 26.4383C97.0997 26.3929 97.6904 26.3889 98.1784 26.4249C98.3757 26.4609 98.565 26.5516 98.7464 26.6956C98.9264 26.8396 99.097 27.0103 99.2597 27.2089C99.3864 27.4249 99.5077 27.6596 99.625 27.9129C99.7424 28.1649 99.8277 28.4089 99.8824 28.6436C99.1784 28.8236 98.3944 28.9449 97.529 29.0076C96.6624 29.0716 95.797 29.1023 94.9317 29.1023C94.4624 29.1023 93.953 29.0849 93.4037 29.0489C92.853 29.0129 92.3157 28.9503 91.793 28.8596C91.2704 28.8049 90.761 28.7423 90.265 28.6703C89.769 28.5983 89.349 28.5076 89.0064 28.3996C87.6544 27.7503 86.5864 26.7756 85.801 25.4783C85.017 24.1796 84.633 22.7449 84.6517 21.1769C84.6517 18.5436 85.3597 16.4783 86.7757 14.9823C88.1904 13.4849 90.2157 12.7356 92.849 12.7356Z" fill="white"/>
<path d="M115.113 19.7969C115.041 19.3823 114.937 18.9129 114.801 18.3903C114.666 17.8676 114.445 17.3716 114.138 16.9023C113.814 16.4516 113.377 16.0729 112.826 15.7663C112.277 15.4596 111.533 15.3063 110.595 15.3063C109.369 15.3063 108.39 15.6849 107.659 16.4423C106.929 17.1996 106.455 18.3183 106.239 19.7969H115.113ZM110.595 12.7356C112.055 12.7356 113.309 12.9663 114.355 13.4263C115.401 13.8863 116.239 14.5396 116.871 15.3876C117.502 16.2169 117.934 17.2183 118.17 18.3903C118.403 19.5623 118.439 20.8889 118.278 22.3663H106.375C106.411 23.1969 106.627 23.8823 107.025 24.4223C107.421 24.9636 107.907 25.3876 108.485 25.6943C109.026 26.0009 109.638 26.2129 110.325 26.3303C111.01 26.4476 111.667 26.5063 112.299 26.5063C112.841 26.5063 113.458 26.4836 114.153 26.4383C114.846 26.3929 115.437 26.3889 115.925 26.4249C116.122 26.4609 116.311 26.5516 116.493 26.6956C116.673 26.8396 116.843 27.0103 117.006 27.2089C117.133 27.4249 117.254 27.6596 117.371 27.9129C117.489 28.1649 117.574 28.4089 117.629 28.6436C116.925 28.8236 116.141 28.9449 115.275 29.0076C114.409 29.0716 113.543 29.1023 112.678 29.1023C112.209 29.1023 111.699 29.0849 111.15 29.0489C110.599 29.0129 110.062 28.9503 109.539 28.8596C109.017 28.8049 108.507 28.7423 108.011 28.6703C107.515 28.5983 107.095 28.5076 106.753 28.3996C105.401 27.7503 104.333 26.7756 103.547 25.4783C102.763 24.1796 102.379 22.7449 102.398 21.1769C102.398 18.5436 103.106 16.4783 104.522 14.9823C105.937 13.4849 107.962 12.7356 110.595 12.7356Z" fill="white"/>
<path d="M130.072 13.142C131.009 13.142 131.821 13.206 132.507 13.3313C133.192 13.458 133.769 13.6286 134.239 13.846C134.671 14.0806 135.027 14.342 135.307 14.63C135.585 14.918 135.797 15.2073 135.943 15.4953C136.159 15.8926 136.312 16.4286 136.403 17.1046C136.492 17.782 136.537 18.4086 136.537 18.9846V28.67H132.859V20.0126C132.859 18.5166 132.637 17.4526 132.195 16.8206C131.753 16.19 130.892 15.874 129.612 15.874C128.512 15.874 127.66 16.1046 127.056 16.5646C126.451 17.0246 125.977 17.5153 125.636 18.038C125.239 18.67 124.977 19.3726 124.851 20.1486V28.67H121.199V13.3313H124.851V16.226C125.536 14.982 126.348 14.1566 127.285 13.7513C128.223 13.3446 129.152 13.142 130.072 13.142Z" fill="white"/>
<path d="M140.785 13.1427H144.626V28.4267H140.785V13.1427ZM142.678 5.99999C143.273 5.99999 143.774 6.19867 144.18 6.596C144.585 6.992 144.788 7.45199 144.788 7.97466C144.788 8.53466 144.585 9.012 144.18 9.40933C143.774 9.80533 143.273 10.004 142.678 10.004C142.046 10.004 141.529 9.80533 141.122 9.40933C140.717 9.012 140.514 8.53466 140.514 7.97466C140.514 7.45199 140.717 6.992 141.122 6.596C141.529 6.19867 142.046 5.99999 142.678 5.99999Z" fill="white"/>
<path d="M160.83 20.7167C160.83 19.7247 160.712 18.9087 160.478 18.2687C160.243 17.6287 159.946 17.1193 159.586 16.7393C159.188 16.3793 158.742 16.1273 158.246 15.982C157.75 15.838 157.24 15.766 156.718 15.766H152.552V25.5313C152.823 25.6047 153.134 25.6673 153.486 25.722C153.836 25.7753 154.211 25.83 154.608 25.8833C154.968 25.938 155.311 25.978 155.636 26.0047C155.96 26.0327 156.231 26.046 156.447 26.046C158.124 26.046 159.274 25.5993 159.896 24.7073C160.519 23.814 160.83 22.4847 160.83 20.7167ZM164.536 20.8247C164.554 22.0513 164.419 23.1607 164.13 24.1527C163.842 25.1447 163.382 25.9833 162.751 26.6687C162.138 27.3713 161.343 27.8993 160.37 28.25C159.396 28.602 158.242 28.7607 156.907 28.7247C156.654 28.6887 156.343 28.6433 155.974 28.5887C155.604 28.5353 155.23 28.4713 154.851 28.3993C154.419 28.3273 154.008 28.242 153.62 28.142C153.232 28.0433 152.876 27.9487 152.552 27.858V34.6753H148.792V13.4127H157.042C158.503 13.4127 159.711 13.602 160.667 13.9807C161.623 14.3593 162.39 14.874 162.967 15.5233C163.508 16.2087 163.895 17.002 164.13 17.9033C164.364 18.8047 164.5 19.7793 164.536 20.8247Z" fill="white"/>
<path d="M178.684 14.116C178.739 14.044 178.824 13.9267 178.941 13.764C179.057 13.6027 179.252 13.5213 179.523 13.5213H182.796C182.705 13.7547 182.444 14.3507 182.012 15.3067C181.579 16.2627 181.047 17.408 180.416 18.7413C179.784 20.0773 179.108 21.5107 178.387 23.0427C177.665 24.576 176.98 26.0453 176.331 27.452C175.645 28.86 175.041 30.1227 174.517 31.24C173.995 32.3587 173.635 33.1613 173.436 33.648C173.309 33.972 173.188 34.224 173.071 34.4053C172.953 34.5853 172.841 34.712 172.732 34.784C172.607 34.8733 172.471 34.9227 172.327 34.932C172.183 34.9413 172.011 34.9467 171.813 34.9467H169.324L172.111 28.48C170.92 26.028 169.86 23.544 168.932 21.028C168.003 18.512 166.98 16.0093 165.861 13.5213H169C169.451 13.5213 169.765 13.6827 169.947 14.008L173.951 24.6667L178.684 14.116Z" fill="white"/>
</svg>
