<svg width="125" height="90" viewBox="0 0 125 90" fill="none" xmlns="http://www.w3.org/2000/svg">
<path d="M84.48 12.1525L64.3 0.5025C63.14 -0.1675 61.7 -0.1675 60.54 0.5025L40.35 12.1525C39.19 12.8225 38.47 14.0725 38.47 15.4125V38.7225C38.47 40.0625 39.19 41.3125 40.35 41.9825L60.53 53.6325C61.11 53.9625 61.76 54.1325 62.41 54.1325C63.06 54.1325 63.71 53.9625 64.29 53.6325L84.47 41.9825C85.63 41.3125 86.35 40.0625 86.35 38.7225V15.4125C86.35 14.0725 85.63 12.8225 84.47 12.1525H84.48ZM83.1201 38.7125C83.1201 38.9025 83.02 39.0725 82.86 39.1625L64.03 50.0325V42.1625C63.49 42.2325 62.95 42.2825 62.41 42.2825C61.87 42.2825 61.33 42.2325 60.79 42.1625V50.0325L41.96 39.1625C41.8 39.0725 41.7 38.8925 41.7 38.7125V15.4025C41.7 15.2125 41.8 15.0425 41.96 14.9525L62.1401 3.3025C62.2201 3.2525 62.3101 3.2325 62.4001 3.2325C62.4901 3.2325 62.58 3.2525 62.66 3.3025L82.84 14.9525C83 15.0425 83.1 15.2225 83.1 15.4025V38.7125H83.1201Z" fill="#069D4C"/>
<path d="M52.3 21.1525C50.96 23.2225 49.7001 25.8125 49.4901 28.7325C49.2401 32.1325 50.4401 35.4425 52.8601 38.0525C54.9801 40.3325 57.81 41.7825 60.79 42.1725V29.6525L52.3 21.1625V21.1525Z" fill="#069D4C"/>
<path d="M68.36 15.6725C66.91 13.8425 65.47 12.0125 64.04 10.1625V28.7925L72.19 20.6425C71.74 19.9825 71.2801 19.3725 70.8701 18.8425C70.0401 17.7825 69.2001 16.7225 68.3701 15.6725H68.36Z" fill="#97C039"/>
<path d="M75.34 28.7325C75.2 26.8425 74.6301 25.0925 73.8801 23.5325L64.04 33.3725V42.1625C67.02 41.7725 69.85 40.3225 71.97 38.0425C74.39 35.4325 75.59 32.1225 75.34 28.7225V28.7325Z" fill="#069D4C"/>
<path d="M54.2401 18.5025L60.8 25.0625V10.1625C59.36 12.0225 57.91 13.8625 56.45 15.7025C55.71 16.6325 54.9701 17.5725 54.2401 18.5025Z" fill="#44E078"/>
<path d="M23.69 86.6024H0V84.0125H23.69V86.6024ZM20.9901 67.1324V74.7025C20.9901 75.3925 20.96 76.2325 20.89 77.2225C20.83 78.2125 20.69 79.1925 20.47 80.1525C20.29 80.7125 20.06 81.1025 19.79 81.3125C19.52 81.5225 19.09 81.6225 18.51 81.6225H16.6C16.95 80.2625 17.15 78.9025 17.21 77.5325C17.27 76.1625 17.31 74.9325 17.31 73.8325V69.5325H2.36005V67.1324H20.9901Z" fill="white"/>
<path d="M30.36 77.2325V80.6625C30.36 81.1125 30.4901 81.4525 30.7501 81.6725C31.0101 81.8925 31.3501 82.0025 31.7701 82.0025H43.81V66.1825H47.6201V89.9825H43.81V84.5925H30.47C29.22 84.5925 28.2301 84.3025 27.5001 83.7225C26.7701 83.1425 26.41 82.2925 26.41 81.1925V74.6825H35.1V69.6125H26.41V67.0525H38.97V77.2425H30.36V77.2325Z" fill="white"/>
<path d="M68.35 84.2525H55.44C54.21 84.2525 53.2201 83.9725 52.5001 83.4125C51.7701 82.8525 51.41 82.0125 51.41 80.9025V66.9825H55.28V80.3825C55.28 80.8325 55.43 81.1725 55.72 81.3925C56.01 81.6125 56.3601 81.7225 56.7501 81.7225H68.35V66.1725H72.1401V89.9725H68.35V84.2525Z" fill="white"/>
<path d="M91.3701 84.1725H75.95V81.6125H79.5201C79.1901 81.2125 78.9401 80.8325 78.7701 80.4725C78.6001 80.1125 78.4701 79.6625 78.4001 79.1425C78.3301 78.6125 78.2801 77.9725 78.2601 77.2225C78.2401 76.4725 78.23 75.5025 78.23 74.3225V69.8025H75.94V67.2425H91.36V69.8025H89.1301V81.6225H91.36V84.1825L91.3701 84.1725ZM81.81 75.6725V77.5425C81.81 78.2225 81.8701 78.8725 82.0001 79.4925C82.1101 80.0925 82.29 80.5925 82.53 81.0025C82.77 81.4125 83.13 81.6125 83.61 81.6125H85.6V69.7925H81.81V75.6725ZM93.7701 66.1725H97.56V73.2025H101.43V75.7325H97.56V89.9725H93.7701V66.1725Z" fill="white"/>
<path d="M109.91 67.1225C111.18 67.1225 112.29 67.3625 113.23 67.8325C114.17 68.3025 114.96 68.9525 115.6 69.7625C116.24 70.5825 116.71 71.5325 117.02 72.6125C117.33 73.6925 117.48 74.8225 117.48 76.0025C117.48 77.1825 117.33 78.3225 117.02 79.4225C116.71 80.5225 116.24 81.4925 115.6 82.3225C114.96 83.1925 114.17 83.8825 113.23 84.3825C112.29 84.8825 111.18 85.1325 109.91 85.1325C108.64 85.1325 107.5 84.8825 106.56 84.3825C105.62 83.8825 104.83 83.2025 104.22 82.3525C103.58 81.5225 103.12 80.5525 102.82 79.4625C102.52 78.3725 102.37 77.2225 102.37 76.0025C102.37 74.7825 102.52 73.6425 102.82 72.5525C103.12 71.4725 103.59 70.5225 104.22 69.7025C104.86 68.9225 105.65 68.2925 106.59 67.8225C107.53 67.3525 108.64 67.1125 109.91 67.1125V67.1225ZM109.96 82.4325C110.67 82.4325 111.24 82.2325 111.69 81.8425C112.13 81.4525 112.5 80.9425 112.79 80.3025C113.04 79.7025 113.23 79.0225 113.33 78.2625C113.43 77.5025 113.49 76.7425 113.49 76.0025C113.49 75.3625 113.44 74.6825 113.35 73.9625C113.26 73.2425 113.1 72.5625 112.86 71.9425C112.59 71.3225 112.22 70.8125 111.74 70.4025C111.27 69.9925 110.67 69.7925 109.94 69.7925C109.21 69.7925 108.62 69.9925 108.17 70.4025C107.72 70.8125 107.35 71.3225 107.08 71.9425C106.79 72.5625 106.59 73.2325 106.49 73.9625C106.39 74.6925 106.34 75.3725 106.34 76.0025C106.34 76.6325 106.39 77.3325 106.49 78.0725C106.59 78.8125 106.79 79.5025 107.08 80.1425C107.35 80.8125 107.72 81.3625 108.17 81.7925C108.62 82.2225 109.21 82.4325 109.94 82.4325H109.96ZM121.04 66.1725H124.83V89.9725H121.04V66.1725Z" fill="white"/>
</svg>
