<svg width="184" height="43" viewBox="0 0 184 43" fill="none" xmlns="http://www.w3.org/2000/svg">
<path d="M69.4815 19.019V29.731H62.6921C61.0495 29.731 59.5441 29.5244 58.1735 29.1097C56.8028 28.695 55.6215 28.055 54.6295 27.1884C53.6375 26.359 52.8668 25.291 52.3175 23.983C51.7668 22.6764 51.4921 21.1284 51.4921 19.343C51.4921 16.1337 52.4295 13.6497 54.3055 11.891C56.1801 10.1323 58.8135 9.25368 62.2041 9.25368H68.3188C68.1561 10.2097 67.9401 10.9084 67.6695 11.3497C67.3988 11.7924 66.9561 12.0124 66.3428 12.0124H63.8281C62.2948 12.0124 61.0188 12.1844 60.0001 12.527C58.9801 12.8697 58.1641 13.347 57.5521 13.9604C56.9375 14.6284 56.5001 15.4164 56.2388 16.327C55.9775 17.2377 55.8468 18.2804 55.8468 19.4524C55.8468 20.3177 55.9281 21.1884 56.0908 22.063C56.2535 22.9377 56.5775 23.7444 57.0641 24.483C57.5335 25.223 58.1908 25.8177 59.0388 26.2697C59.8868 26.7204 60.9775 26.9457 62.3121 26.9457H66.0735V21.5084H61.7175V19.019H69.4815Z" fill="#363636"/>
<path d="M77.2721 18.451C77.5788 18.0363 77.9028 17.603 78.2455 17.1523C78.5881 16.7017 79.0041 16.2963 79.4908 15.935C79.9774 15.575 80.5495 15.2683 81.2081 15.015C81.8655 14.763 82.7001 14.6097 83.7108 14.555V17.8283C82.6828 17.9003 81.7721 18.1257 80.9775 18.5057C80.1841 18.8843 79.5081 19.335 78.9495 19.8577C78.4081 20.3803 77.9935 20.9217 77.7041 21.4803C77.4161 22.0403 77.2721 22.5457 77.2721 22.9963V29.8937H73.6201V14.4737H77.2721V18.451Z" fill="#363636"/>
<path d="M97.8584 21.0209C97.7864 20.6062 97.6824 20.1369 97.5464 19.6142C97.4117 19.0915 97.1904 18.5955 96.8837 18.1262C96.5597 17.6755 96.1224 17.2969 95.5717 16.9902C95.0224 16.6835 94.2784 16.5302 93.3411 16.5302C92.1144 16.5302 91.1357 16.9089 90.4051 17.6662C89.6744 18.4235 89.2011 19.5422 88.9851 21.0209H97.8584ZM93.3411 13.9595C94.8011 13.9595 96.0544 14.1902 97.1011 14.6502C98.1464 15.1102 98.9851 15.7635 99.6171 16.6115C100.248 17.4409 100.68 18.4422 100.916 19.6142C101.149 20.7862 101.185 22.1129 101.024 23.5902H89.1211C89.1571 24.4209 89.3731 25.1062 89.7704 25.6462C90.1664 26.1875 90.6531 26.6115 91.2304 26.9182C91.7717 27.2249 92.3837 27.4369 93.0704 27.5542C93.7557 27.6715 94.4131 27.7302 95.0451 27.7302C95.5864 27.7302 96.2037 27.7075 96.8984 27.6622C97.5917 27.6169 98.1824 27.6129 98.6704 27.6489C98.8677 27.6849 99.0571 27.7755 99.2384 27.9195C99.4184 28.0635 99.5891 28.2342 99.7517 28.4329C99.8784 28.6489 99.9997 28.8835 100.117 29.1369C100.234 29.3889 100.32 29.6329 100.374 29.8675C99.6704 30.0475 98.8864 30.1689 98.0211 30.2315C97.1544 30.2955 96.2891 30.3262 95.4237 30.3262C94.9544 30.3262 94.4451 30.3089 93.8957 30.2729C93.3451 30.2369 92.8077 30.1742 92.2851 30.0835C91.7624 30.0289 91.2531 29.9662 90.7571 29.8942C90.2611 29.8222 89.8411 29.7315 89.4984 29.6235C88.1464 28.9742 87.0784 27.9995 86.2931 26.7022C85.5091 25.4035 85.1251 23.9689 85.1437 22.4009C85.1437 19.7675 85.8517 17.7022 87.2677 16.2062C88.6824 14.7089 90.7077 13.9595 93.3411 13.9595Z" fill="#363636"/>
<path d="M115.605 21.0209C115.533 20.6062 115.429 20.1369 115.293 19.6142C115.158 19.0915 114.937 18.5955 114.63 18.1262C114.306 17.6755 113.869 17.2969 113.318 16.9902C112.769 16.6835 112.025 16.5302 111.087 16.5302C109.861 16.5302 108.882 16.9089 108.151 17.6662C107.421 18.4235 106.947 19.5422 106.731 21.0209H115.605ZM111.087 13.9595C112.547 13.9595 113.801 14.1902 114.847 14.6502C115.893 15.1102 116.731 15.7635 117.363 16.6115C117.994 17.4409 118.426 18.4422 118.662 19.6142C118.895 20.7862 118.931 22.1129 118.77 23.5902H106.867C106.903 24.4209 107.119 25.1062 107.517 25.6462C107.913 26.1875 108.399 26.6115 108.977 26.9182C109.518 27.2249 110.13 27.4369 110.817 27.5542C111.502 27.6715 112.159 27.7302 112.791 27.7302C113.333 27.7302 113.95 27.7075 114.645 27.6622C115.338 27.6169 115.929 27.6129 116.417 27.6489C116.614 27.6849 116.803 27.7755 116.985 27.9195C117.165 28.0635 117.335 28.2342 117.498 28.4329C117.625 28.6489 117.746 28.8835 117.863 29.1369C117.981 29.3889 118.066 29.6329 118.121 29.8675C117.417 30.0475 116.633 30.1689 115.767 30.2315C114.901 30.2955 114.035 30.3262 113.17 30.3262C112.701 30.3262 112.191 30.3089 111.642 30.2729C111.091 30.2369 110.554 30.1742 110.031 30.0835C109.509 30.0289 108.999 29.9662 108.503 29.8942C108.007 29.8222 107.587 29.7315 107.245 29.6235C105.893 28.9742 104.825 27.9995 104.039 26.7022C103.255 25.4035 102.871 23.9689 102.89 22.4009C102.89 19.7675 103.598 17.7022 105.014 16.2062C106.429 14.7089 108.454 13.9595 111.087 13.9595Z" fill="#363636"/>
<path d="M130.564 14.3659C131.502 14.3659 132.314 14.4299 132.999 14.5553C133.684 14.6819 134.262 14.8526 134.731 15.0699C135.163 15.3046 135.519 15.5659 135.799 15.8539C136.078 16.1419 136.29 16.4313 136.435 16.7193C136.651 17.1166 136.804 17.6526 136.895 18.3286C136.984 19.0059 137.03 19.6326 137.03 20.2086V29.8939H133.351V21.2366C133.351 19.7406 133.13 18.6766 132.687 18.0446C132.246 17.4139 131.384 17.0979 130.104 17.0979C129.004 17.0979 128.152 17.3286 127.548 17.7886C126.944 18.2486 126.47 18.7393 126.128 19.2619C125.731 19.8939 125.47 20.5966 125.343 21.3726V29.8939H121.691V14.5553H125.343V17.4499C126.028 16.2059 126.84 15.3806 127.778 14.9753C128.715 14.5686 129.644 14.3659 130.564 14.3659Z" fill="#363636"/>
<path d="M141.276 14.3666H145.117V29.6506H141.276V14.3666ZM143.171 7.22393C143.765 7.22393 144.267 7.4226 144.672 7.81994C145.077 8.21594 145.28 8.67593 145.28 9.1986C145.28 9.7586 145.077 10.2359 144.672 10.6333C144.267 11.0293 143.765 11.2279 143.171 11.2279C142.539 11.2279 142.021 11.0293 141.615 10.6333C141.209 10.2359 141.007 9.7586 141.007 9.1986C141.007 8.67593 141.209 8.21594 141.615 7.81994C142.021 7.4226 142.539 7.22393 143.171 7.22393Z" fill="#363636"/>
<path d="M161.322 21.9406C161.322 20.9486 161.204 20.1326 160.97 19.4926C160.735 18.8526 160.438 18.3433 160.078 17.9633C159.68 17.6033 159.234 17.3513 158.738 17.2059C158.242 17.0619 157.732 16.9899 157.21 16.9899H153.044V26.7553C153.315 26.8286 153.626 26.8913 153.978 26.9459C154.328 26.9993 154.703 27.0539 155.1 27.1073C155.46 27.1619 155.803 27.2019 156.128 27.2286C156.452 27.2566 156.723 27.2699 156.939 27.2699C158.616 27.2699 159.766 26.8233 160.388 25.9313C161.011 25.0379 161.322 23.7086 161.322 21.9406ZM165.028 22.0486C165.046 23.2753 164.911 24.3846 164.622 25.3766C164.334 26.3686 163.874 27.2073 163.243 27.8926C162.63 28.5953 161.835 29.1233 160.862 29.4739C159.888 29.8259 158.734 29.9846 157.399 29.9486C157.146 29.9126 156.835 29.8673 156.466 29.8126C156.096 29.7593 155.722 29.6953 155.343 29.6233C154.911 29.5513 154.5 29.4659 154.112 29.3659C153.724 29.2673 153.368 29.1726 153.044 29.0819V35.8993H149.284V14.6366H157.535C158.995 14.6366 160.203 14.8259 161.159 15.2046C162.115 15.5833 162.882 16.0979 163.459 16.7473C164 17.4326 164.387 18.2259 164.622 19.1273C164.856 20.0286 164.992 21.0033 165.028 22.0486Z" fill="#363636"/>
<path d="M179.176 15.3399C179.231 15.2679 179.316 15.1506 179.433 14.9879C179.551 14.8266 179.744 14.7453 180.015 14.7453H183.288C183.197 14.9786 182.936 15.5746 182.504 16.5306C182.071 17.4866 181.539 18.6319 180.908 19.9653C180.276 21.3013 179.6 22.7346 178.879 24.2666C178.157 25.7999 177.472 27.2693 176.823 28.6759C176.137 30.0839 175.533 31.3466 175.009 32.4639C174.487 33.5826 174.127 34.3853 173.928 34.8719C173.801 35.1959 173.68 35.4479 173.563 35.6293C173.445 35.8093 173.333 35.9359 173.225 36.0079C173.099 36.0973 172.963 36.1466 172.819 36.1559C172.675 36.1653 172.503 36.1706 172.305 36.1706H169.816L172.603 29.7039C171.412 27.2519 170.352 24.7679 169.424 22.2519C168.495 19.7359 167.472 17.2333 166.353 14.7453H169.492C169.943 14.7453 170.257 14.9066 170.439 15.2319L174.443 25.8906L179.176 15.3399Z" fill="#363636"/>
<path d="M35.0031 30.7877C35.0031 30.933 34.9257 31.069 34.7991 31.141L20.1137 39.6197V33.4797C19.6951 33.5344 19.2737 33.5717 18.8497 33.5717C18.4257 33.5717 18.0057 33.5344 17.5871 33.4797V39.6197L2.90041 31.141C2.77507 31.069 2.69641 30.933 2.69641 30.7877V12.6064C2.69641 12.461 2.77507 12.3264 2.90041 12.253L18.6457 3.16238C18.7084 3.12638 18.7791 3.10771 18.8497 3.10771C18.9204 3.10771 18.9911 3.12638 19.0537 3.16238L34.7991 12.253C34.9257 12.3264 35.0031 12.461 35.0031 12.6064V30.7877ZM36.0631 10.065L20.3177 0.974375C19.4111 0.451709 18.2884 0.451709 17.3831 0.974375L1.63641 10.065C0.732406 10.5877 0.169739 11.5624 0.169739 12.6064V30.7877C0.169739 31.833 0.732406 32.8064 1.63641 33.329L17.3831 42.4197C17.8351 42.681 18.3417 42.8117 18.8497 42.8117C19.3564 42.8117 19.8644 42.681 20.3177 42.4197L36.0631 33.329C36.9671 32.8064 37.5297 31.833 37.5297 30.7877V12.6064C37.5297 11.561 36.9671 10.5877 36.0631 10.065Z" fill="#069D4C"/>
<path d="M10.9621 17.0857C9.91546 18.6977 8.93813 20.719 8.77146 23.0003C8.5768 25.6537 9.51146 28.235 11.4021 30.2683C13.0568 32.047 15.2608 33.175 17.5861 33.4803V23.711L10.9621 17.0857Z" fill="#069D4C"/>
<path d="M23.4857 12.8111C22.3551 11.3831 21.2284 9.95377 20.1137 8.51377V23.0484L26.4724 16.6884C26.1204 16.1711 25.7671 15.7004 25.4404 15.2858C24.7897 14.4578 24.1377 13.6338 23.4857 12.8111Z" fill="#97C039"/>
<path d="M28.9289 23.0007C28.8209 21.526 28.3743 20.162 27.7889 18.9447L20.1129 26.6207V33.4794C22.4396 33.1754 24.6436 32.0474 26.2983 30.2687C28.1889 28.2354 29.1223 25.654 28.9289 23.0007Z" fill="#069D4C"/>
<path d="M12.4697 15.0197L17.5871 20.137V8.51436C16.4671 9.96236 15.3337 11.3984 14.1964 12.8344C13.6204 13.561 13.0444 14.289 12.4697 15.0197Z" fill="#44E078"/>
</svg>